<svg width="30" height="30" viewBox="0 0 30 30" fill="none" xmlns="http://www.w3.org/2000/svg">
<rect x="30" y="30" width="30" height="30" rx="15" transform="rotate(-180 30 30)" fill="#E6E8EC" fill-opacity="0.2"/>
<path d="M13.394 20.8757L14.1027 20.378L15.8065 19.1818L17.8771 17.7299L19.6605 16.4744C19.9505 16.2709 20.2405 16.0682 20.5295 15.8638L20.5416 15.8548C20.6811 15.7757 20.7969 15.6627 20.8773 15.5269C20.9577 15.3912 21 15.2374 21 15.0809C21 14.9244 20.9577 14.7706 20.8773 14.6348C20.7969 14.4991 20.6811 14.386 20.5416 14.307L19.831 13.7905L18.1254 12.5511L16.0603 11.0518L14.2778 9.75684C13.9888 9.54699 13.7053 9.32639 13.4088 9.12911L13.3968 9.12014C13.217 8.99011 12.8881 8.97486 12.6825 9.03046C12.565 9.06159 12.455 9.11483 12.3589 9.18714C12.2627 9.25944 12.1822 9.34938 12.122 9.45183C12.0617 9.55427 12.0229 9.66721 12.0078 9.78417C11.9927 9.90113 12.0016 10.0198 12.0339 10.1335L12.1266 10.3478C12.2069 10.4806 12.3211 10.5911 12.4583 10.6688L13.1661 11.1836L14.8754 12.4211L16.9405 13.9205L18.7248 15.219C19.0139 15.4288 19.2992 15.6458 19.5938 15.8467L19.6059 15.8548L19.6059 14.307L18.8971 14.8047L17.1934 16.0001L15.1218 17.4546L13.3393 18.7101C13.0493 18.9136 12.7594 19.1154 12.4703 19.3199L12.4573 19.3288C12.2533 19.4528 12.1023 19.6438 12.0321 19.8669C11.9677 20.0999 12.001 20.348 12.1247 20.5574C12.2471 20.76 12.4467 20.9081 12.6806 20.9699C12.9104 21.0201 13.1957 21.0183 13.3949 20.8802L13.394 20.8757Z" fill="#363535"/>
<rect x="29.5" y="29.5" width="29" height="29" rx="14.5" transform="rotate(-180 29.5 29.5)" stroke="#E6E8EC" stroke-opacity="0.2"/>
</svg>
