<svg width="32" height="32" viewBox="0 0 32 32" fill="none" xmlns="http://www.w3.org/2000/svg">
<g clip-path="url(#clip0_2125_49593)">
<path d="M2.98324 0.533648H9.64167C9.8594 0.533262 10.0711 0.604763 10.2435 0.736925C10.4159 0.869086 10.5393 1.05442 10.5942 1.26383L12.5576 8.73371C12.6043 8.91447 12.5985 9.10474 12.5406 9.2823C12.4827 9.45986 12.3752 9.6174 12.2306 9.73654L9.34295 12.0783C9.17566 12.2146 9.0583 12.402 9.00904 12.6113C8.95979 12.8206 8.98139 13.0403 9.07052 13.2362C9.6661 14.5434 11.1372 17.3857 13.3917 19.3297C15.5711 21.1972 18.1451 22.7771 19.4039 23.5017C19.6121 23.6217 19.8574 23.6615 20.0932 23.6137C20.3291 23.5658 20.5391 23.4336 20.6833 23.2421L22.7105 20.5641C22.8303 20.4055 22.9958 20.2868 23.1851 20.2237C23.3743 20.1607 23.5784 20.1563 23.7702 20.2112L31.2571 22.3494C31.4611 22.4081 31.6406 22.5307 31.7689 22.6989C31.8972 22.8672 31.9675 23.0721 31.9692 23.2832V29.8006C31.9691 30.0426 31.8788 30.276 31.7157 30.4557C31.5526 30.6354 31.3283 30.7486 31.0862 30.7736C27.9693 31.1023 17.2169 31.4179 8.65719 21.7425C0.18197 12.1624 1.39755 3.75317 2.01755 1.26756C2.07263 1.05544 2.19773 0.867823 2.37282 0.734758C2.54791 0.601693 2.76286 0.530876 2.98324 0.533648Z" fill="url(#paint0_linear_2125_49593)"/>
</g>
<defs>
<linearGradient id="paint0_linear_2125_49593" x1="4.94846" y1="22.0992" x2="19.149" y2="14.4064" gradientUnits="userSpaceOnUse">
<stop offset="0.08" stop-color="#F28D00"/>
<stop offset="0.25" stop-color="#F49718"/>
<stop offset="0.59" stop-color="#F6AA47"/>
<stop offset="0.85" stop-color="#F8B663"/>
<stop offset="1" stop-color="#F9BA6E"/>
</linearGradient>
<clipPath id="clip0_2125_49593">
<rect width="31" height="31" fill="white" transform="translate(0.916504 0.5)"/>
</clipPath>
</defs>
</svg>
