<svg xmlns="http://www.w3.org/2000/svg" xmlns:xlink="http://www.w3.org/1999/xlink" viewBox="0 66.86 100.41 44.4">
  <defs>
    <style>.cls-1{fill:url(#blue_gradient);}</style>
    <linearGradient id="blue_gradient" x1="20.41" y1="31.58" x2="100.41" y2="31.58" gradientUnits="userSpaceOnUse">
      
      <!-- <stop offset="0.18" stop-color="#2767AA"/>
      <stop offset="0.9" stop-color="#5FA7DA"/>
       -->
      <stop offset="0.18" stop-color="#0063af"/>
      <stop offset="0.56" stop-color="#1f8bcc"/>
      <stop offset="1" stop-color="#5FA7DA"/>
    </linearGradient>
  </defs>
    <path class="cls-1" d="M24,83h4a8.19,8.19,0,0,1-.09,1.3C27.75,85.41,27,86,25.66,86H20.44A2,2,0,0,1,19,85.43a2,2,0,0,1-.54-1.49V70.42l.15-.14h1.27c1.36,0,2,.73,2,2.18V83.05C22.65,83,23.35,83,24,83Z"/>
    <path class="cls-1" d="M30.31,85.91V70.42A9.06,9.06,0,0,1,32,70.28a9.18,9.18,0,0,1,1.74.14V85.91a9.18,9.18,0,0,1-1.74.14A9.06,9.06,0,0,1,30.31,85.91Z"/>
    <path class="cls-1" d="M43,73.28,43,75v11a10.82,10.82,0,0,1-3.47,0V75l0-1.68h0l-1.4,0H35.75a9.48,9.48,0,0,1,0-2.88H46.86A4.76,4.76,0,0,1,47,71.8,1.39,1.39,0,0,1,46.61,73a2.18,2.18,0,0,1-1.38.35h-.79l-1.41,0Z"/>
    <path class="cls-1" d="M54.51,73.28l0,1.68v11a10.82,10.82,0,0,1-3.47,0V75l0-1.68h0l-1.41,0h-2.4a9.48,9.48,0,0,1,0-2.88H58.36a4.76,4.76,0,0,1,.18,1.38A1.39,1.39,0,0,1,58.11,73a2.22,2.22,0,0,1-1.38.35h-.8l-1.4,0Z"/>
    <path class="cls-1" d="M65.84,83h4a8.19,8.19,0,0,1-.09,1.3c-.18,1.13-.94,1.7-2.27,1.7H62.28a2,2,0,0,1-1.47-.55,2,2,0,0,1-.54-1.49V70.42l.15-.14h1.27c1.36,0,2.05.73,2.05,2.18V83.05C64.49,83,65.19,83,65.84,83Z"/>
    <path class="cls-1" d="M75.51,81.53l0,1.57v0c.67,0,1.22-.05,1.66-.05h5.35a7.48,7.48,0,0,1-.07,1.23A2,2,0,0,1,80.2,86H74.08a2,2,0,0,1-1.47-.55,2.05,2.05,0,0,1-.53-1.49V70.58l.16-.16h9.68A6.06,6.06,0,0,1,82,71.74a4.62,4.62,0,0,1-.28,1.58H75.48l0,1.61v1.8c.39,0,.9,0,1.52,0h3.55a4,4,0,0,1,.21,1.4,4.38,4.38,0,0,1-.21,1.44H75.51Z"/>
    <path class="cls-1" d="M5.65,109,2.23,91.44a5.84,5.84,0,0,1,2.33-.51,2.35,2.35,0,0,1,1.68.51A3.35,3.35,0,0,1,7,93.34l1.29,7.77c.42,2.44.67,4,.74,4.79a7.74,7.74,0,0,0,.14,1.21s.1.07.22.07l2.47-15.62a16.86,16.86,0,0,1,2.83-.2,16.37,16.37,0,0,1,2.81.2l2.27,15.22a.6.6,0,0,0,.1.34.34.34,0,0,0,.22.06c.19-1.76.48-3.81.86-6.13l1.73-9.86A9,9,0,0,1,24.59,91a7.88,7.88,0,0,1,2.13.29l.2.29-3.86,19.22a30.3,30.3,0,0,1-3.34.2,4.67,4.67,0,0,1-2.24-.4,2.19,2.19,0,0,1-.86-1.62l-1-6.41q-.66-4.67-.86-6.73h-.23q-.37,3.16-1,6.73l-1.35,8.23a33.19,33.19,0,0,1-3.4.2,4.61,4.61,0,0,1-2.2-.39A2.25,2.25,0,0,1,5.65,109Z"/>
    <path class="cls-1" d="M31.92,109.46c-2.06-1.71-3.08-4.53-3.08-8.45s1-6.74,3.08-8.44a8.25,8.25,0,0,1,5.41-1.82,8.24,8.24,0,0,1,5.4,1.82c2.06,1.7,3.08,4.52,3.08,8.44s-1,6.74-3.08,8.45a8.29,8.29,0,0,1-5.4,1.81A8.3,8.3,0,0,1,31.92,109.46Zm5.39-15.31q-3.9,0-3.9,6.86c0,4.58,1.3,6.86,3.9,6.86s3.9-2.28,3.9-6.86S39.91,94.15,37.31,94.15Z"/>
    <path class="cls-1" d="M62.83,97.23a5.57,5.57,0,0,1-3.51,5.26,3.85,3.85,0,0,1,2.18,2.62l.92,2.56a4.54,4.54,0,0,0,1.41,2.1,3.17,3.17,0,0,1-1.23,1,4.29,4.29,0,0,1-1.82.38,2,2,0,0,1-1.55-.58,5.52,5.52,0,0,1-1-2L57.1,105.4a3,3,0,0,0-.85-1.38,2.41,2.41,0,0,0-1.65-.49H53.24v7.31a11.81,11.81,0,0,1-2.18.17,11.43,11.43,0,0,1-2.16-.17V91.33l.2-.2c3.22-.08,5.49-.12,6.79-.12a7.66,7.66,0,0,1,5,1.57A5.7,5.7,0,0,1,62.83,97.23Zm-9.59-2.91v5.84l2.31-.06c1.86,0,2.79-.95,2.79-2.87s-.93-2.88-2.79-2.88Q54.11,94.35,53.24,94.32Z"/>
    <path class="cls-1" d="M73.59,107.12h5.09a9.87,9.87,0,0,1-.12,1.65c-.23,1.43-1.19,2.15-2.87,2.15H69.07a2.52,2.52,0,0,1-1.87-.69,2.56,2.56,0,0,1-.69-1.9V91.19l.2-.18h1.61c1.73,0,2.59.92,2.59,2.76v13.44C71.87,107.15,72.76,107.12,73.59,107.12Z"/>
    <path class="cls-1" d="M96.45,96a16.26,16.26,0,0,1,.67,5,16.71,16.71,0,0,1-.66,5,7.23,7.23,0,0,1-2.56,3.57,6,6,0,0,1-2.39,1.08,13.75,13.75,0,0,1-3.22.36c-1.15,0-3.4,0-6.73-.12l-.21-.2V91.33l.21-.2q3.3-.12,7.1-.12a11.78,11.78,0,0,1,2.85.38,6.16,6.16,0,0,1,2.39,1.09A7.39,7.39,0,0,1,96.45,96Zm-10,11.53,2.24,0q3.95,0,3.94-6.56t-3.94-6.57l-2.93,0v13.15A3.31,3.31,0,0,1,86.42,107.56Z"/>
</svg>