<svg width="20" height="21" viewBox="0 0 20 21" fill="none" xmlns="http://www.w3.org/2000/svg">
<path d="M9.99951 1.33325C10.5467 1.33325 11.0885 1.44103 11.594 1.65042C12.0995 1.85982 12.5589 2.16673 12.9458 2.55364C13.3327 2.94055 13.6396 3.39988 13.849 3.9054C14.0584 4.41093 14.1662 4.95274 14.1662 5.49992V10.4999C14.1662 11.605 13.7272 12.6648 12.9458 13.4462C12.1644 14.2276 11.1046 14.6666 9.99951 14.6666C8.89444 14.6666 7.83463 14.2276 7.05323 13.4462C6.27183 12.6648 5.83284 11.605 5.83284 10.4999V5.49992C5.83284 4.39485 6.27183 3.33504 7.05323 2.55364C7.83463 1.77224 8.89444 1.33325 9.99951 1.33325V1.33325ZM1.82617 12.1349L3.46117 11.8074C3.76483 13.3178 4.58203 14.6765 5.77393 15.6526C6.96583 16.6287 8.45891 17.1621 9.99951 17.1621C11.5401 17.1621 13.0332 16.6287 14.2251 15.6526C15.417 14.6765 16.2342 13.3178 16.5378 11.8074L18.1728 12.1349C17.4128 15.9541 14.0412 18.8333 9.99951 18.8333C5.95784 18.8333 2.58617 15.9541 1.82617 12.1349Z" fill="#363535"/>
</svg>
