<svg width="33" height="33" viewBox="0 0 33 33" fill="none" xmlns="http://www.w3.org/2000/svg">
<g clip-path="url(#clip0_4876_13010)">
<path d="M20.5 10.8262H20.5133" stroke="#36A9E0" stroke-width="2" stroke-linecap="round" stroke-linejoin="round"/>
<path d="M23.1673 5.49219H9.83398C7.62485 5.49219 5.83398 7.28305 5.83398 9.49219V22.8255C5.83398 25.0347 7.62485 26.8255 9.83398 26.8255H23.1673C25.3765 26.8255 27.1673 25.0347 27.1673 22.8255V9.49219C27.1673 7.28305 25.3765 5.49219 23.1673 5.49219Z" stroke="#36A9E0" stroke-width="2" stroke-linecap="round" stroke-linejoin="round"/>
<path d="M5.83398 20.1591L11.1673 14.8258C11.7754 14.2407 12.4652 13.9326 13.1673 13.9326C13.8695 13.9326 14.5592 14.2407 15.1673 14.8258L21.834 21.4924" stroke="#36A9E0" stroke-width="2" stroke-linecap="round" stroke-linejoin="round"/>
<path d="M19.166 18.8261L20.4993 17.4928C21.1074 16.9077 21.7972 16.5996 22.4993 16.5996C23.2015 16.5996 23.8913 16.9077 24.4993 17.4928L27.166 20.1594" stroke="#36A9E0" stroke-width="2" stroke-linecap="round" stroke-linejoin="round"/>
</g>
<defs>
<clipPath id="clip0_4876_13010">
<rect width="32" height="32" fill="white" transform="translate(0.5 0.15918)"/>
</clipPath>
</defs>
</svg>
