<?xml version="1.0" standalone="no"?>
<!DOCTYPE svg PUBLIC "-//W3C//DTD SVG 20010904//EN"
 "http://www.w3.org/TR/2001/REC-SVG-20010904/DTD/svg10.dtd">
<svg version="1.0" xmlns="http://www.w3.org/2000/svg"
 width="48.000000pt" height="48.000000pt" viewBox="0 0 48.000000 48.000000"
 preserveAspectRatio="xMidYMid meet">

<g transform="translate(0.000000,48.000000) scale(0.100000,-0.100000)"
fill="#db590b" stroke="none">
<path d="M187 410 c-23 -27 -32 -30 -81 -30 -43 0 -56 -3 -56 -15 0 -8 8 -15
18 -15 17 0 20 -15 31 -132 17 -180 16 -178 141 -178 125 0 124 -2 141 178 11
117 14 132 31 132 10 0 18 7 18 15 0 12 -13 15 -58 15 -53 0 -60 3 -80 30 -16
21 -31 30 -51 30 -20 0 -37 -9 -54 -30z m83 -15 c11 -13 7 -15 -30 -15 -37 0
-41 2 -30 15 7 8 20 15 30 15 10 0 23 -7 30 -15z m2 -122 c28 -26 37 -53 19
-53 -6 0 -13 5 -16 10 -15 25 -25 5 -25 -50 0 -33 -4 -60 -10 -60 -6 0 -10 27
-10 60 0 55 -10 75 -25 50 -9 -14 -25 -13 -25 2 0 12 49 68 59 68 3 0 18 -12
33 -27z"/>
</g>
</svg>
