<svg width="312" height="125" viewBox="0 0 312 125" fill="none" xmlns="http://www.w3.org/2000/svg">
<g clip-path="url(#clip0_4711_62382)">
<path d="M52.0004 69.2271C67.5606 69.2271 80.1747 56.7959 80.1747 41.4612C80.1747 26.1265 67.5606 13.6953 52.0004 13.6953C36.4402 13.6953 23.8262 26.1265 23.8262 41.4612C23.8262 56.7959 36.4402 69.2271 52.0004 69.2271Z" stroke="url(#paint0_linear_4711_62382)" stroke-width="2" stroke-miterlimit="10"/>
<path d="M74.2148 75.8846C72.6507 75.1604 70.8237 75.2667 69.3607 76.1703C64.3178 79.2599 58.3715 81.0405 52.0004 81.0405C45.6293 81.0405 39.683 79.2532 34.6401 76.1703C33.1704 75.2734 31.3501 75.1604 29.786 75.8846C13.619 83.3726 1.98251 98.7804 0.0273657 117.039C-0.28276 119.962 2.08363 122.5 5.06354 122.5H98.9373C101.917 122.5 104.284 119.962 103.973 117.039C102.018 98.7804 90.3818 83.3726 74.2148 75.878V75.8846Z" fill="url(#paint1_linear_4711_62382)"/>
<path d="M36.4061 23.1034C26.172 26.4587 25.1742 35.023 24.4123 47.142C17.9267 38.292 19.2616 21.7015 31.1003 13.6953L36.4061 23.1034Z" fill="url(#paint2_linear_4711_62382)"/>
<path d="M75.6173 10.5258C71.3565 6.32665 62.0797 0.366848 50.5376 3.2637C42.9934 5.15728 26.1927 3.2637 26.1927 3.2637C26.1927 3.2637 25.1208 18.4323 38.0045 24.0798C43.8834 26.6511 51.0972 25.8472 57.2053 24.2193C77.0668 19.595 79.804 45.9258 79.804 45.9258C87.9684 29.342 79.8714 14.7249 75.6106 10.5258H75.6173Z" fill="url(#paint3_linear_4711_62382)"/>
<path d="M57.4137 52.8092C57.3665 52.9355 57.5215 52.5833 57.4541 52.7229C57.4069 52.8159 57.3665 52.9089 57.3193 52.9953C57.1575 53.3076 56.962 53.6065 56.753 53.8856C56.2001 54.6098 55.3237 55.3207 54.4068 55.6995C51.973 56.6961 49.0875 56.0449 47.402 54.0583C47.1862 53.7992 46.9503 53.467 46.7615 53.1215C46.6941 53.0019 46.6402 52.8823 46.5727 52.7627C46.4716 52.5701 46.6199 52.8823 46.5862 52.8026C46.2019 51.8126 44.5704 52.2445 44.9614 53.2411C46.9368 58.2907 54.2517 59.3205 57.7642 55.2676C58.2901 54.663 58.7485 53.9919 59.0452 53.2411C59.4362 52.2445 57.8047 51.8126 57.4204 52.8026L57.4137 52.8092Z" fill="url(#paint4_linear_4711_62382)"/>
<path d="M40.0131 43.9326C40.0131 43.9326 40.0805 43.7001 40.1007 43.7001C40.1007 43.7001 39.9929 43.9326 40.0872 43.7399C40.1075 43.6934 40.1277 43.6536 40.1479 43.607C40.2086 43.4941 40.2693 43.3745 40.3367 43.2682C40.4109 43.1486 40.4918 43.0356 40.5727 42.9161C40.6536 42.7965 40.4715 43.0224 40.6131 42.8695C40.667 42.8031 40.7277 42.7433 40.7817 42.6769C40.8963 42.5573 41.0244 42.4443 41.1525 42.338C41.0244 42.4443 41.1929 42.3114 41.2401 42.2849C41.3345 42.2251 41.4221 42.1719 41.5233 42.1188C41.5637 42.0988 41.7592 42.0124 41.6985 42.039C41.6446 42.059 41.8401 41.9925 41.8941 41.9792C42.0019 41.946 42.1031 41.9261 42.2109 41.9061C42.2109 41.9061 42.3525 41.8862 42.2649 41.8929C42.1772 41.9061 42.393 41.8862 42.4132 41.8862C42.5211 41.8862 42.6289 41.8862 42.7301 41.8862C42.7705 41.8862 43.0267 41.9128 42.8986 41.8929C43.1143 41.9261 43.3166 41.9859 43.5256 42.0523C43.3773 41.9992 43.6335 42.1055 43.6672 42.1188C43.7413 42.1586 43.8155 42.1985 43.8897 42.245C43.9638 42.2915 44.0312 42.338 44.0987 42.3845C43.9571 42.2782 44.1863 42.4643 44.22 42.4975C44.3346 42.6038 44.4425 42.7101 44.5369 42.823C44.5908 42.8828 44.6784 43.0024 44.5841 42.8695C44.638 42.9426 44.6852 43.0091 44.7391 43.0822C44.8874 43.3081 45.0155 43.5472 45.1302 43.7931C45.2043 43.9459 45.056 43.5871 45.1167 43.7599C45.1302 43.7864 45.1369 43.8197 45.1504 43.8462C45.1639 43.8728 45.1706 43.906 45.1841 43.9326C45.5077 44.9492 47.1325 44.5173 46.8089 43.4941C46.4381 42.3114 45.5414 41.1487 44.3953 40.6172C43.4177 40.1654 42.2514 40.0724 41.2334 40.4444C40.3434 40.77 39.6423 41.368 39.0962 42.1254C38.7995 42.5373 38.5568 43.0091 38.4018 43.4874C38.0782 44.5106 39.703 44.9492 40.0266 43.926L40.0131 43.9326Z" fill="url(#paint5_linear_4711_62382)"/>
<path d="M58.8295 43.9326C58.8295 43.9326 58.8969 43.7001 58.9171 43.7001C58.9171 43.7001 58.8093 43.9326 58.9036 43.7399C58.9239 43.6934 58.9441 43.6536 58.9643 43.607C59.025 43.4941 59.0857 43.3745 59.1531 43.2682C59.2273 43.1486 59.3082 43.0357 59.3891 42.9161C59.47 42.7965 59.2879 43.0224 59.4295 42.8695C59.4834 42.8031 59.5441 42.7433 59.5981 42.6769C59.7127 42.5573 59.8408 42.4443 59.9689 42.338C59.8408 42.4443 60.0093 42.3114 60.0565 42.2849C60.1509 42.2251 60.2385 42.1719 60.3397 42.1188C60.3801 42.0988 60.5756 42.0124 60.5149 42.039C60.461 42.059 60.6565 41.9925 60.7105 41.9792C60.8183 41.946 60.9195 41.9261 61.0273 41.9061C61.0273 41.9061 61.1689 41.8862 61.0813 41.8929C60.9936 41.9061 61.2094 41.8862 61.2296 41.8862C61.3375 41.8862 61.4453 41.8862 61.5465 41.8862C61.5869 41.8862 61.8431 41.9128 61.715 41.8929C61.9307 41.9261 62.133 41.9859 62.342 42.0523C62.1937 41.9992 62.4499 42.1055 62.4836 42.1188C62.5577 42.1586 62.6319 42.1985 62.7061 42.245C62.7802 42.2915 62.8476 42.338 62.9151 42.3845C62.7735 42.2782 63.0027 42.4643 63.0364 42.4975C63.151 42.6038 63.2589 42.7101 63.3533 42.823C63.4072 42.8828 63.4949 43.0024 63.4005 42.8695C63.4544 42.9426 63.5016 43.0091 63.5555 43.0822C63.7038 43.3081 63.8319 43.5473 63.9466 43.7931C64.0207 43.9459 63.8724 43.5871 63.9331 43.7599C63.9466 43.7864 63.9533 43.8197 63.9668 43.8462C63.9803 43.8728 63.987 43.906 64.0005 43.9326C64.3241 44.9492 65.9489 44.5173 65.6253 43.4941C65.2545 42.3114 64.3578 41.1487 63.2117 40.6172C62.2341 40.1654 61.0678 40.0724 60.0498 40.4444C59.1598 40.77 58.4587 41.368 57.9126 42.1254C57.6159 42.5373 57.3732 43.0091 57.2182 43.4875C56.8946 44.5107 58.5194 44.9492 58.843 43.926L58.8295 43.9326Z" fill="url(#paint6_linear_4711_62382)"/>
</g>
<g clip-path="url(#clip1_4711_62382)">
<path d="M157.37 64.3427V63.2067L151.379 67.6079C149.144 69.25 145.951 68.8193 144.262 66.6469C142.572 64.4746 143.015 61.3708 145.25 59.7288L151.243 55.3248H150.46L150.972 53.7958H148.959L148.169 53.1982L143.079 56.9373C139.26 59.7422 138.504 65.0453 141.39 68.7574C142.832 70.6121 144.918 71.7238 147.12 72.0226C149.321 72.3187 151.639 71.8019 153.55 70.3994L159.593 65.9605L159.566 64.5096L157.372 64.34L157.37 64.3427Z" fill="url(#paint7_linear_4711_62382)"/>
<path d="M169.713 50.0945C168.473 48.1914 166.542 46.8696 164.28 46.377C162.017 45.8844 159.693 46.2774 157.733 47.4834L151.825 51.1228L152.437 51.672L154.73 51.855L154.091 53.3382L154.858 53.4002L159.66 50.4418C160.807 49.7365 162.167 49.505 163.49 49.793C164.814 50.0811 165.944 50.8536 166.67 51.9681C167.395 53.0825 167.633 54.4042 167.337 55.691C167.041 56.9777 166.246 58.076 165.099 58.7813L160.197 61.8016L160.106 62.8891L162.275 63.2309L162.178 64.7276L167.03 61.7396C168.988 60.5337 170.348 58.6574 170.854 56.4582C171.361 54.2589 170.957 52.0004 169.716 50.0945H169.713Z" fill="url(#paint8_linear_4711_62382)"/>
<path d="M120.677 98.5002C118.453 98.5002 116.232 97.6792 114.537 96.0318C111.153 92.7423 111.153 87.3881 114.537 84.0986L124.197 74.7093C127.582 71.4198 133.09 71.4198 136.474 74.7093C139.859 77.9988 139.859 83.353 136.474 86.6425L126.814 96.0318C125.122 97.6765 122.898 98.5002 120.674 98.5002H120.677ZM130.337 75.743C129.036 75.743 127.734 76.2248 126.745 77.1885L117.085 86.5779C115.105 88.5026 115.105 91.6359 117.085 93.5633C119.065 95.488 122.289 95.488 124.272 93.5633L133.932 84.1767C135.912 82.252 135.912 79.1186 133.932 77.1912C132.941 76.2275 131.642 75.7457 130.34 75.7457L130.337 75.743Z" fill="url(#paint9_linear_4711_62382)"/>
<path d="M183.497 50.0221C182.744 50.0221 181.985 49.9252 181.237 49.7314C178.997 49.1472 177.125 47.7528 175.967 45.8012C173.574 41.7715 174.998 36.6003 179.144 34.2745L190.972 27.6363C192.98 26.5084 195.32 26.2096 197.561 26.7938C199.801 27.3779 201.674 28.7723 202.831 30.7266C203.989 32.6809 204.299 34.9529 203.698 37.1306C203.097 39.3084 201.663 41.1281 199.652 42.2533L187.823 48.8915C186.486 49.6425 185.001 50.0248 183.497 50.0248V50.0221ZM195.307 30.0052C194.445 30.0052 193.573 30.2179 192.775 30.6647L180.947 37.3029C178.521 38.665 177.687 41.6907 179.088 44.0488C180.49 46.4069 183.603 47.2171 186.029 45.8551L197.857 39.2169C200.283 37.8548 201.117 34.8291 199.718 32.471C198.779 30.8881 197.065 30.0025 195.309 30.0025L195.307 30.0052Z" fill="url(#paint10_linear_4711_62382)"/>
<path d="M130.514 82.1499C130.051 82.1499 129.589 81.9776 129.237 81.6331C128.536 80.9466 128.542 79.8403 129.248 79.1592L146.621 62.4049C147.327 61.7239 148.466 61.7292 149.166 62.4157C149.867 63.1021 149.861 64.2085 149.155 64.8895L131.782 81.6438C131.43 81.983 130.973 82.1526 130.514 82.1526V82.1499Z" fill="url(#paint11_linear_4711_62382)"/>
<path d="M162.82 56.0275C162.219 56.0275 161.629 55.7341 161.288 55.2011C160.765 54.3801 161.023 53.3006 161.867 52.7919L182.636 40.2584C183.48 39.7497 184.591 40 185.114 40.821C185.638 41.6421 185.38 42.7215 184.536 43.2303L163.767 55.7637C163.471 55.9414 163.144 56.0275 162.82 56.0275Z" fill="url(#paint12_linear_4711_62382)"/>
<path d="M166.196 68.4395L168.645 71.6159L170.605 68.4395H166.196Z" fill="url(#paint13_linear_4711_62382)"/>
<path d="M164.236 69.7637L165.706 70.9266L164.02 71.6157L164.236 69.7637Z" fill="url(#paint14_linear_4711_62382)"/>
<path d="M157.995 71.6157L160.643 69.7637V75.0021L157.411 74.7383L157.995 71.6157Z" fill="url(#paint15_linear_4711_62382)"/>
<path d="M143.168 51.6661H144.747L144.309 49.6553L143.168 51.6661Z" fill="url(#paint16_linear_4711_62382)"/>
<path d="M142.678 47.1684L146.378 49.6557V46.5169L144.747 44.0996L142.678 47.1684Z" fill="url(#paint17_linear_4711_62382)"/>
<path d="M148.339 45.1572L149.156 48.7024L151.443 45.1572H148.339Z" fill="url(#paint18_linear_4711_62382)"/>
</g>
<g clip-path="url(#clip2_4711_62382)">
<path d="M261.78 14.9657C267.304 14.9657 271.783 11.7274 271.783 7.73285C271.783 3.73826 267.304 0.5 261.78 0.5C256.256 0.5 251.777 3.73826 251.777 7.73285C251.777 11.7274 256.256 14.9657 261.78 14.9657Z" fill="url(#paint19_linear_4711_62382)"/>
<path d="M262.001 72.6283C276.963 72.6283 289.091 60.524 289.091 45.5925C289.091 30.661 276.963 18.5566 262.001 18.5566C247.039 18.5566 234.91 30.661 234.91 45.5925C234.91 60.524 247.039 72.6283 262.001 72.6283Z" stroke="url(#paint20_linear_4711_62382)" stroke-width="2" stroke-miterlimit="10"/>
<path d="M283.36 79.1045C281.856 78.3994 280.1 78.5029 278.693 79.3827C273.844 82.391 268.126 84.1248 262 84.1248C255.874 84.1248 250.157 82.3845 245.308 79.3827C243.895 78.5093 242.144 78.3994 240.64 79.1045C225.095 86.4021 213.906 101.405 212.026 119.183C211.728 122.029 214.003 124.501 216.869 124.501H307.132C309.997 124.501 312.273 122.029 311.974 119.183C310.095 101.405 298.906 86.4021 283.36 79.1045Z" fill="url(#paint21_linear_4711_62382)"/>
<path d="M266.875 56.642C266.829 56.7649 266.979 56.422 266.914 56.5579C266.868 56.6485 266.829 56.739 266.784 56.8231C266.628 57.1272 266.44 57.4183 266.24 57.69C265.708 58.3952 264.865 59.0874 263.984 59.4562C261.643 60.4266 258.869 59.7926 257.248 57.8583C257.041 57.6059 256.814 57.2825 256.632 56.9461C256.568 56.8296 256.516 56.7132 256.451 56.5967C256.354 56.4091 256.496 56.7132 256.464 56.6355C256.094 55.6716 254.526 56.0921 254.902 57.0625C256.801 61.9793 263.834 62.9821 267.212 59.0357C267.718 58.447 268.158 57.7936 268.444 57.0625C268.82 56.0921 267.251 55.6716 266.881 56.6355L266.875 56.642Z" fill="url(#paint22_linear_4711_62382)"/>
<path d="M250.144 47.9989C250.144 47.9989 250.209 47.7725 250.228 47.7725C250.228 47.7725 250.124 47.9989 250.215 47.8113C250.235 47.766 250.254 47.7272 250.273 47.6819C250.332 47.5719 250.39 47.4555 250.455 47.3519C250.526 47.2355 250.604 47.1255 250.682 47.0091C250.76 46.8926 250.585 47.1126 250.721 46.9638C250.773 46.8991 250.831 46.8409 250.883 46.7762C250.993 46.6597 251.116 46.5497 251.239 46.4462C251.116 46.5497 251.278 46.4203 251.324 46.3945C251.414 46.3362 251.499 46.2845 251.596 46.2327C251.635 46.2133 251.823 46.1292 251.764 46.1551C251.713 46.1745 251.901 46.1098 251.952 46.0969C252.056 46.0645 252.153 46.0451 252.257 46.0257C252.257 46.0257 252.393 46.0063 252.309 46.0128C252.225 46.0257 252.432 46.0063 252.452 46.0063C252.555 46.0063 252.659 46.0063 252.756 46.0063C252.795 46.0063 253.042 46.0322 252.918 46.0128C253.126 46.0451 253.32 46.1033 253.521 46.168C253.379 46.1163 253.625 46.2198 253.657 46.2327C253.729 46.2715 253.8 46.3104 253.871 46.3556C253.943 46.4009 254.007 46.4462 254.072 46.4915C253.936 46.388 254.157 46.5691 254.189 46.6015C254.299 46.705 254.403 46.8085 254.494 46.9185C254.545 46.9767 254.63 47.0932 254.539 46.9638C254.591 47.0349 254.636 47.0996 254.688 47.1708C254.831 47.3908 254.954 47.6237 255.064 47.863C255.135 48.0118 254.993 47.6625 255.051 47.8307C255.064 47.8566 255.071 47.8889 255.084 47.9148C255.096 47.9407 255.103 47.973 255.116 47.9989C255.427 48.9887 256.989 48.5682 256.678 47.5719C256.322 46.4203 255.46 45.2882 254.357 44.7706C253.418 44.3307 252.296 44.2401 251.317 44.6024C250.461 44.9194 249.787 45.5017 249.262 46.2392C248.977 46.6403 248.744 47.0996 248.594 47.5654C248.283 48.5617 249.846 48.9887 250.157 47.9924L250.144 47.9989Z" fill="url(#paint23_linear_4711_62382)"/>
<path d="M268.237 47.9989C268.237 47.9989 268.301 47.7725 268.321 47.7725C268.321 47.7725 268.217 47.9989 268.308 47.8113C268.327 47.766 268.347 47.7272 268.366 47.6819C268.425 47.5719 268.483 47.4555 268.548 47.3519C268.619 47.2355 268.697 47.1255 268.775 47.0091C268.852 46.8926 268.677 47.1126 268.814 46.9638C268.865 46.8991 268.924 46.8409 268.976 46.7762C269.086 46.6597 269.209 46.5497 269.332 46.4462C269.209 46.5497 269.371 46.4203 269.416 46.3945C269.507 46.3362 269.591 46.2845 269.689 46.2327C269.728 46.2133 269.916 46.1292 269.857 46.1551C269.805 46.1745 269.993 46.1098 270.045 46.0969C270.149 46.0645 270.246 46.0451 270.35 46.0257C270.35 46.0257 270.486 46.0063 270.402 46.0128C270.317 46.0257 270.525 46.0063 270.544 46.0063C270.648 46.0063 270.752 46.0063 270.849 46.0063C270.888 46.0063 271.134 46.0322 271.011 46.0128C271.219 46.0451 271.413 46.1033 271.614 46.168C271.471 46.1163 271.718 46.2198 271.75 46.2327C271.821 46.2715 271.893 46.3104 271.964 46.3556C272.035 46.4009 272.1 46.4462 272.165 46.4915C272.029 46.388 272.249 46.5691 272.282 46.6015C272.392 46.705 272.496 46.8085 272.586 46.9185C272.638 46.9767 272.723 47.0932 272.632 46.9638C272.684 47.0349 272.729 47.0996 272.781 47.1708C272.923 47.3908 273.047 47.6237 273.157 47.863C273.228 48.0118 273.086 47.6625 273.144 47.8307C273.157 47.8566 273.163 47.8889 273.176 47.9148C273.189 47.9407 273.196 47.973 273.209 47.9989C273.52 48.9887 275.082 48.5682 274.771 47.5719C274.414 46.4203 273.552 45.2882 272.45 44.7706C271.51 44.3307 270.389 44.2401 269.41 44.6024C268.554 44.9194 267.88 45.5017 267.355 46.2392C267.07 46.6403 266.836 47.0996 266.687 47.5654C266.376 48.5617 267.938 48.9887 268.25 47.9924L268.237 47.9989Z" fill="url(#paint24_linear_4711_62382)"/>
<path d="M296.144 62.4384C293.065 58.162 294.102 47.785 294.102 47.785C294.135 47.785 294.16 47.785 294.16 47.785C294.16 47.785 301.136 27.1151 289.312 14.5838C285.033 10.0487 280.353 7.76501 273.17 7.76501C268.036 7.76501 264.95 9.81583 263.362 11.3038C262.584 12.0284 261.372 12.0413 260.581 11.3297C258.85 9.77701 256.542 7.61621 249.93 7.61621C243.318 7.61621 238.488 9.86111 234.028 14.5838C222.204 27.1151 229.179 47.785 229.179 47.785C229.179 47.785 230.216 58.162 227.137 62.4384C224.058 66.7147 221.199 68.5973 221.199 68.5973C221.199 68.5973 229.912 74.8015 239.363 72.6277C248.329 70.564 248.329 68.9337 248.329 68.9337C248.329 68.9337 238.521 62.7812 236.777 55.4902C235.772 51.2721 235.305 48.6261 235.091 47.1446C241.963 45.9154 253.191 42.3119 259.777 31.7473C260.484 30.6151 261.106 29.5412 261.676 28.5061C262.247 29.5412 262.869 30.6151 263.576 31.7473C270.143 42.286 281.331 45.896 288.203 47.1381C287.989 48.6196 287.522 51.2656 286.518 55.4966C284.78 62.7877 274.966 68.9402 274.966 68.9402C274.966 68.9402 274.966 70.5705 283.931 72.6342C293.383 74.8079 302.095 68.6037 302.095 68.6037C302.095 68.6037 299.236 66.7147 296.157 62.4448L296.144 62.4384Z" fill="url(#paint25_linear_4711_62382)"/>
</g>
<defs>
<linearGradient id="paint0_linear_4711_62382" x1="23.152" y1="41.4612" x2="80.8489" y2="41.4612" gradientUnits="userSpaceOnUse">
<stop stop-color="#F28D00"/>
<stop offset="0.18" stop-color="#F39718"/>
<stop offset="0.55" stop-color="#F6A946"/>
<stop offset="0.83" stop-color="#F8B563"/>
<stop offset="1" stop-color="#F9BA6E"/>
</linearGradient>
<linearGradient id="paint1_linear_4711_62382" x1="0.000398242" y1="98.9531" x2="104" y2="98.9531" gradientUnits="userSpaceOnUse">
<stop stop-color="#F28D00"/>
<stop offset="1" stop-color="#F9BA6E"/>
</linearGradient>
<linearGradient id="paint2_linear_4711_62382" x1="20.556" y1="30.4186" x2="36.4061" y2="30.4186" gradientUnits="userSpaceOnUse">
<stop stop-color="#F28D00"/>
<stop offset="0.11" stop-color="#F2920E"/>
<stop offset="0.52" stop-color="#F6A741"/>
<stop offset="0.83" stop-color="#F8B561"/>
<stop offset="1" stop-color="#F9B96D"/>
</linearGradient>
<linearGradient id="paint3_linear_4711_62382" x1="26.1725" y1="24.2127" x2="83.3165" y2="24.2127" gradientUnits="userSpaceOnUse">
<stop offset="0.03" stop-color="#F28D00"/>
<stop offset="0.5" stop-color="#F9B86B"/>
<stop offset="0.58" stop-color="#F8B461"/>
<stop offset="0.72" stop-color="#F6A946"/>
<stop offset="0.9" stop-color="#F3971B"/>
<stop offset="1" stop-color="#F28D00"/>
</linearGradient>
<linearGradient id="paint4_linear_4711_62382" x1="45.6154" y1="55.0151" x2="58.3845" y2="55.0151" gradientUnits="userSpaceOnUse">
<stop stop-color="#F28D00"/>
<stop offset="0.18" stop-color="#F39718"/>
<stop offset="0.55" stop-color="#F6A946"/>
<stop offset="0.83" stop-color="#F8B563"/>
<stop offset="1" stop-color="#F9BA6E"/>
</linearGradient>
<linearGradient id="paint5_linear_4711_62382" x1="39.0355" y1="42.3646" x2="46.1414" y2="42.3646" gradientUnits="userSpaceOnUse">
<stop stop-color="#F28D00"/>
<stop offset="0.18" stop-color="#F39718"/>
<stop offset="0.55" stop-color="#F6A946"/>
<stop offset="0.83" stop-color="#F8B563"/>
<stop offset="1" stop-color="#F9BA6E"/>
</linearGradient>
<linearGradient id="paint6_linear_4711_62382" x1="57.8587" y1="42.3646" x2="64.9578" y2="42.3646" gradientUnits="userSpaceOnUse">
<stop stop-color="#F28D00"/>
<stop offset="0.18" stop-color="#F39718"/>
<stop offset="0.55" stop-color="#F6A946"/>
<stop offset="0.83" stop-color="#F8B563"/>
<stop offset="1" stop-color="#F9BA6E"/>
</linearGradient>
<linearGradient id="paint7_linear_4711_62382" x1="139.636" y1="62.6522" x2="159.593" y2="62.6522" gradientUnits="userSpaceOnUse">
<stop stop-color="#F28D00"/>
<stop offset="0.18" stop-color="#F39718"/>
<stop offset="0.55" stop-color="#F6A946"/>
<stop offset="0.83" stop-color="#F8B563"/>
<stop offset="1" stop-color="#F9BA6E"/>
</linearGradient>
<linearGradient id="paint8_linear_4711_62382" x1="151.533" y1="54.5709" x2="170.957" y2="56.2208" gradientUnits="userSpaceOnUse">
<stop stop-color="#F28D00"/>
<stop offset="0.18" stop-color="#F39718"/>
<stop offset="0.55" stop-color="#F6A946"/>
<stop offset="0.83" stop-color="#F8B563"/>
<stop offset="1" stop-color="#F9BA6E"/>
</linearGradient>
<linearGradient id="paint9_linear_4711_62382" x1="114.62" y1="96.1132" x2="135.934" y2="74.1849" gradientUnits="userSpaceOnUse">
<stop stop-color="#F28D00"/>
<stop offset="0.18" stop-color="#F39718"/>
<stop offset="0.55" stop-color="#F6A946"/>
<stop offset="0.83" stop-color="#F8B563"/>
<stop offset="1" stop-color="#F9BA6E"/>
</linearGradient>
<linearGradient id="paint10_linear_4711_62382" x1="176.035" y1="45.9161" x2="202.515" y2="30.1869" gradientUnits="userSpaceOnUse">
<stop stop-color="#F28D00"/>
<stop offset="0.18" stop-color="#F39718"/>
<stop offset="0.55" stop-color="#F6A946"/>
<stop offset="0.83" stop-color="#F8B563"/>
<stop offset="1" stop-color="#F9BA6E"/>
</linearGradient>
<linearGradient id="paint11_linear_4711_62382" x1="128.713" y1="72.023" x2="149.687" y2="72.023" gradientUnits="userSpaceOnUse">
<stop stop-color="#F28D00"/>
<stop offset="0.18" stop-color="#F39718"/>
<stop offset="0.55" stop-color="#F6A946"/>
<stop offset="0.83" stop-color="#F8B563"/>
<stop offset="1" stop-color="#F9BA6E"/>
</linearGradient>
<linearGradient id="paint12_linear_4711_62382" x1="161.017" y1="48.0111" x2="185.386" y2="48.0111" gradientUnits="userSpaceOnUse">
<stop stop-color="#F28D00"/>
<stop offset="0.18" stop-color="#F39718"/>
<stop offset="0.55" stop-color="#F6A946"/>
<stop offset="0.83" stop-color="#F8B563"/>
<stop offset="1" stop-color="#F9BA6E"/>
</linearGradient>
<linearGradient id="paint13_linear_4711_62382" x1="166.196" y1="70.0277" x2="170.605" y2="70.0277" gradientUnits="userSpaceOnUse">
<stop stop-color="#F28D00"/>
<stop offset="0.18" stop-color="#F39718"/>
<stop offset="0.55" stop-color="#F6A946"/>
<stop offset="0.83" stop-color="#F8B563"/>
<stop offset="1" stop-color="#F9BA6E"/>
</linearGradient>
<linearGradient id="paint14_linear_4711_62382" x1="164.02" y1="70.6897" x2="165.706" y2="70.6897" gradientUnits="userSpaceOnUse">
<stop stop-color="#F28D00"/>
<stop offset="0.18" stop-color="#F39718"/>
<stop offset="0.55" stop-color="#F6A946"/>
<stop offset="0.83" stop-color="#F8B563"/>
<stop offset="1" stop-color="#F9BA6E"/>
</linearGradient>
<linearGradient id="paint15_linear_4711_62382" x1="157.411" y1="72.3829" x2="160.643" y2="72.3829" gradientUnits="userSpaceOnUse">
<stop stop-color="#F28D00"/>
<stop offset="0.18" stop-color="#F39718"/>
<stop offset="0.55" stop-color="#F6A946"/>
<stop offset="0.83" stop-color="#F8B563"/>
<stop offset="1" stop-color="#F9BA6E"/>
</linearGradient>
<linearGradient id="paint16_linear_4711_62382" x1="143.168" y1="50.6593" x2="144.747" y2="50.6593" gradientUnits="userSpaceOnUse">
<stop stop-color="#F28D00"/>
<stop offset="0.18" stop-color="#F39718"/>
<stop offset="0.55" stop-color="#F6A946"/>
<stop offset="0.83" stop-color="#F8B563"/>
<stop offset="1" stop-color="#F9BA6E"/>
</linearGradient>
<linearGradient id="paint17_linear_4711_62382" x1="142.678" y1="46.8776" x2="146.378" y2="46.8776" gradientUnits="userSpaceOnUse">
<stop stop-color="#F28D00"/>
<stop offset="0.18" stop-color="#F39718"/>
<stop offset="0.55" stop-color="#F6A946"/>
<stop offset="0.83" stop-color="#F8B563"/>
<stop offset="1" stop-color="#F9BA6E"/>
</linearGradient>
<linearGradient id="paint18_linear_4711_62382" x1="148.339" y1="46.9285" x2="151.443" y2="46.9285" gradientUnits="userSpaceOnUse">
<stop stop-color="#F28D00"/>
<stop offset="0.18" stop-color="#F39718"/>
<stop offset="0.55" stop-color="#F6A946"/>
<stop offset="0.83" stop-color="#F8B563"/>
<stop offset="1" stop-color="#F9BA6E"/>
</linearGradient>
<linearGradient id="paint19_linear_4711_62382" x1="261.287" y1="12.1191" x2="262.598" y2="0.460593" gradientUnits="userSpaceOnUse">
<stop stop-color="#F28D00"/>
<stop offset="0.2" stop-color="#F3930F"/>
<stop offset="0.58" stop-color="#F5A439"/>
<stop offset="1" stop-color="#F9BA6E"/>
</linearGradient>
<linearGradient id="paint20_linear_4711_62382" x1="234.262" y1="45.5925" x2="289.74" y2="45.5925" gradientUnits="userSpaceOnUse">
<stop stop-color="#F28D00"/>
<stop offset="0.18" stop-color="#F39718"/>
<stop offset="0.55" stop-color="#F6A946"/>
<stop offset="0.83" stop-color="#F8B563"/>
<stop offset="1" stop-color="#F9BA6E"/>
</linearGradient>
<linearGradient id="paint21_linear_4711_62382" x1="212" y1="101.573" x2="312" y2="101.573" gradientUnits="userSpaceOnUse">
<stop stop-color="#F28D00"/>
<stop offset="1" stop-color="#F9BA6E"/>
</linearGradient>
<linearGradient id="paint22_linear_4711_62382" x1="255.524" y1="58.7899" x2="267.808" y2="58.7899" gradientUnits="userSpaceOnUse">
<stop stop-color="#F28D00"/>
<stop offset="0.18" stop-color="#F39718"/>
<stop offset="0.55" stop-color="#F6A946"/>
<stop offset="0.83" stop-color="#F8B563"/>
<stop offset="1" stop-color="#F9BA6E"/>
</linearGradient>
<linearGradient id="paint23_linear_4711_62382" x1="249.204" y1="46.4721" x2="256.036" y2="46.4721" gradientUnits="userSpaceOnUse">
<stop stop-color="#F28D00"/>
<stop offset="0.18" stop-color="#F39718"/>
<stop offset="0.55" stop-color="#F6A946"/>
<stop offset="0.83" stop-color="#F8B563"/>
<stop offset="1" stop-color="#F9BA6E"/>
</linearGradient>
<linearGradient id="paint24_linear_4711_62382" x1="267.297" y1="46.4721" x2="274.129" y2="46.4721" gradientUnits="userSpaceOnUse">
<stop stop-color="#F28D00"/>
<stop offset="0.18" stop-color="#F39718"/>
<stop offset="0.55" stop-color="#F6A946"/>
<stop offset="0.83" stop-color="#F8B563"/>
<stop offset="1" stop-color="#F9BA6E"/>
</linearGradient>
<linearGradient id="paint25_linear_4711_62382" x1="221.193" y1="40.3581" x2="302.089" y2="40.3581" gradientUnits="userSpaceOnUse">
<stop stop-color="#F28D00"/>
<stop offset="0.18" stop-color="#F39718"/>
<stop offset="0.55" stop-color="#F6A946"/>
<stop offset="0.83" stop-color="#F8B563"/>
<stop offset="1" stop-color="#F9BA6E"/>
</linearGradient>
<clipPath id="clip0_4711_62382">
<rect width="104" height="120" fill="white" transform="translate(0 2.5)"/>
</clipPath>
<clipPath id="clip1_4711_62382">
<rect width="92" height="72" fill="white" transform="translate(112 26.5)"/>
</clipPath>
<clipPath id="clip2_4711_62382">
<rect width="100" height="124" fill="white" transform="translate(212 0.5)"/>
</clipPath>
</defs>
</svg>
