<svg width="16" height="16" viewBox="0 0 16 16" fill="none" xmlns="http://www.w3.org/2000/svg">
<g clip-path="url(#clip0_4132_56312)">
<path d="M6.83379 13.709C6.81302 13.7091 6.7925 13.7136 6.77346 13.7222C6.75443 13.7307 6.7373 13.7431 6.72309 13.7587C6.70888 13.7742 6.6979 13.7926 6.69082 13.8126C6.68374 13.8326 6.6807 13.8539 6.68189 13.8752C6.69895 14.2199 6.84442 14.5447 7.08823 14.7824C7.33204 15.0202 7.65556 15.1528 7.99193 15.1528C8.32831 15.1528 8.65183 15.0202 8.89564 14.7824C9.13945 14.5447 9.28492 14.2199 9.30198 13.8752C9.30307 13.854 9.29996 13.8327 9.29285 13.8127C9.28573 13.7927 9.27475 13.7744 9.26056 13.7589C9.24637 13.7434 9.22927 13.7309 9.21029 13.7224C9.1913 13.7138 9.17082 13.7092 9.15008 13.709H6.83379Z" fill="#F39325"/>
<path d="M13.8389 11.6576L13.6188 11.5572C13.4772 11.4922 13.3569 11.3866 13.2724 11.2532C13.1878 11.1198 13.1426 10.9641 13.1422 10.805V7.13396C13.1409 6.02346 12.7699 4.94673 12.0906 4.08219C11.4112 3.21766 10.4643 2.61722 9.40685 2.38037C9.41933 2.18222 9.39213 1.98355 9.32694 1.79659C9.26174 1.60963 9.15992 1.43835 9.02776 1.29329C8.8956 1.14823 8.73589 1.03248 8.55847 0.95315C8.38104 0.873823 8.18967 0.832606 7.99614 0.832037C7.8026 0.831469 7.611 0.871561 7.43314 0.949845C7.25528 1.02813 7.09492 1.14295 6.96195 1.28722C6.82898 1.4315 6.72621 1.60218 6.65998 1.78875C6.59374 1.97533 6.56543 2.17384 6.57681 2.37206C5.51847 2.60861 4.57089 3.20956 3.8915 4.07507C3.2121 4.94057 2.8418 6.01852 2.84212 7.12981V10.805C2.84085 10.9644 2.79492 11.12 2.70981 11.2534C2.6247 11.3868 2.50401 11.4922 2.36212 11.5572L2.14204 11.6576C1.99965 11.7226 1.8787 11.8286 1.79386 11.9627C1.70901 12.0969 1.66393 12.2534 1.66406 12.4133V13.0089C1.66397 13.0393 1.66975 13.0695 1.68105 13.0976C1.69235 13.1257 1.70895 13.1512 1.72991 13.1727C1.75086 13.1942 1.77576 13.2113 1.80315 13.2229C1.83055 13.2345 1.85991 13.2404 1.88955 13.2403H14.0934C14.123 13.2403 14.1523 13.2343 14.1796 13.2227C14.2069 13.211 14.2318 13.194 14.2526 13.1725C14.2735 13.151 14.2901 13.1255 14.3013 13.0974C14.3126 13.0694 14.3183 13.0393 14.3182 13.0089V12.4133C14.3177 12.2534 14.2721 12.097 14.1871 11.963C14.1021 11.8289 13.9812 11.7229 13.8389 11.6576V11.6576Z" fill="#F39325"/>
</g>
<defs>
<clipPath id="clip0_4132_56312">
<rect width="16" height="16" rx="8" fill="white"/>
</clipPath>
</defs>
</svg>
