<svg width="18" height="18" viewBox="0 0 18 18" fill="none" xmlns="http://www.w3.org/2000/svg">
<path d="M9 1.5C9.2063 1.5 9.39314 1.58329 9.52874 1.71808L9 1.875L8.71291 1.55691C8.80134 1.52024 8.89831 1.5 9 1.5Z" fill="#F39325"/>
<path d="M8.71291 1.55691L9 1.875L9.5306 1.71994L12.5303 4.71967C12.8232 5.01256 12.8232 5.48744 12.5303 5.78033C12.2374 6.07322 11.7626 6.07322 11.4697 5.78033L9.75 4.06066V10.5C9.75 10.9142 9.41421 11.25 9 11.25C8.58579 11.25 8.25 10.9142 8.25 10.5V4.06066L6.53033 5.78033C6.23744 6.07322 5.76256 6.07322 5.46967 5.78033C5.17678 5.48744 5.17678 5.01256 5.46967 4.71967L8.46967 1.71967C8.54158 1.64776 8.62445 1.59351 8.71291 1.55691Z" fill="#F39325"/>
<path d="M3.75 9C3.75 8.58579 3.41421 8.25 3 8.25C2.58579 8.25 2.25 8.58579 2.25 9V13.5C2.25 14.7426 3.25736 15.75 4.5 15.75H13.5C14.7426 15.75 15.75 14.7426 15.75 13.5V9C15.75 8.58579 15.4142 8.25 15 8.25C14.5858 8.25 14.25 8.58579 14.25 9V13.5C14.25 13.9142 13.9142 14.25 13.5 14.25H4.5C4.08579 14.25 3.75 13.9142 3.75 13.5V9Z" fill="#F39325"/>
</svg>
