<svg width="39" height="37" viewBox="0 0 39 37" fill="none" xmlns="http://www.w3.org/2000/svg">
<path d="M31.374 26.6517H24.3793L19.7233 33.0689L15.4826 26.6517H7.78076C4.68983 26.6517 2.18457 24.3749 2.18457 21.5617V9.00523C2.18457 6.19793 4.68983 3.91528 7.78076 3.91528H31.374C34.465 3.91528 36.9702 6.1901 36.9702 9.00523V21.5676C36.9702 24.3749 34.465 26.6517 31.374 26.6517Z
  M26.397 17.0217H13.6415C13.4284 17.0217 13.2556 17.1944 13.2556 17.4074V17.5425C13.2556 17.7555 13.4284 17.9281 13.6415 17.9281H26.397C26.6101 17.9281 26.7828 17.7555 26.7828 17.5425V17.4074C26.7828 17.1944 26.6101 17.0217 26.397 17.0217Z
  M30.5611 13.41H9.477C9.25307 13.41 9.07153 13.5915 9.07153 13.8153V13.9112C9.07153 14.135 9.25307 14.3164 9.477 14.3164H30.5611C30.7851 14.3164 30.9666 14.135 30.9666 13.9112V13.8153C30.9666 13.5915 30.7851 13.41 30.5611 13.41Z"  fill="url(#paint0_linear_2129_56231)" />
<defs>
<linearGradient id="paint0_linear_2129_56231" x1="2.18457" y1="31.2468" x2="35.5285" y2="-1.90772" gradientUnits="userSpaceOnUse">
<stop stop-color="#36A9E0"/>
<stop offset="1" stop-color="#0367B2"/>
</linearGradient>
</defs>
</svg>
