<svg width="40" height="40" viewBox="0 0 40 40" fill="none" xmlns="http://www.w3.org/2000/svg">
<path d="M19.9992 7.5C13.0963 7.5 7.5 13.0965 7.5 19.9996C7.5 26.9027 13.0963 32.5 20 32.5C26.9037 32.5 32.5 26.9035 32.5 19.9996C32.5 13.0957 26.9029 7.5 19.9992 7.5ZM20.8713 27.5319C20.4695 27.7531 19.9743 27.8644 19.3856 27.8644C18.797 27.8644 18.3017 27.7531 17.8999 27.5319C17.7473 27.2687 17.6718 26.8739 17.6718 26.3475C17.6718 25.8211 17.7473 25.4263 17.8999 25.1631C18.2604 24.9412 18.7549 24.8306 19.3856 24.8306C20.0164 24.8306 20.5108 24.942 20.8713 25.1631C21.024 25.4263 21.1003 25.8211 21.1003 26.3475C21.1003 26.8739 21.024 27.2687 20.8713 27.5319ZM21.9934 20.9247L20.7257 21.5897L20.5178 23.2522C20.1986 23.3636 19.8147 23.4181 19.3646 23.4181C18.9145 23.4181 18.5229 23.3628 18.1911 23.2522L18.0253 20.1561L18.2745 19.8447L19.3965 19.3253C20.7678 18.7023 21.4538 17.982 21.4538 17.1644C21.4538 16.7213 21.3082 16.3717 21.0177 16.1147C20.7273 15.8585 20.2702 15.73 19.6465 15.73C19.0228 15.73 18.2542 15.9722 17.3401 16.4573C17.0629 16.2362 16.8137 15.9099 16.5925 15.4808C16.3706 15.0518 16.253 14.643 16.239 14.2552C17.555 13.4656 18.9223 13.0708 20.3426 13.0708C21.7629 13.0708 22.8429 13.4134 23.5842 14.0994C24.3247 14.7847 24.6954 15.6888 24.6954 16.8109C24.6954 18.598 23.7952 19.9692 21.9942 20.9247H21.9934Z" fill="url(#paint0_linear_4483_57587)"/>
<defs>
<linearGradient id="paint0_linear_4483_57587" x1="7.5" y1="30.9375" x2="35.625" y2="7.5" gradientUnits="userSpaceOnUse">
<stop stop-color="#36A9E0"/>
<stop offset="1" stop-color="#0367B2"/>
</linearGradient>
</defs>
</svg>
