<svg width="35" height="35" viewBox="0 0 35 35" fill="none" xmlns="http://www.w3.org/2000/svg">
<path d="M14.9512 29.9879C14.9058 29.9882 14.8609 29.9981 14.8193 30.0167C14.7776 30.0354 14.7402 30.0626 14.7091 30.0966C14.678 30.1306 14.654 30.1708 14.6385 30.2146C14.623 30.2584 14.6164 30.305 14.619 30.3516C14.6563 31.1055 14.9745 31.816 15.5078 32.3361C16.0411 32.8562 16.7489 33.1462 17.4847 33.1462C18.2205 33.1462 18.9282 32.8562 19.4615 32.3361C19.9949 31.816 20.3131 31.1055 20.3504 30.3516C20.3528 30.3051 20.346 30.2585 20.3304 30.2148C20.3149 30.1711 20.2908 30.131 20.2598 30.0971C20.2288 30.0631 20.1914 30.0359 20.1498 30.0172C20.1083 29.9984 20.0635 29.9885 20.0181 29.9879H14.9512Z" fill="url(#paint0_linear_2129_56239)"/>
<path d="M30.2743 25.5015L29.7929 25.2818C29.4831 25.1397 29.2199 24.9088 29.035 24.6169C28.85 24.325 28.7512 23.9845 28.7503 23.6363V15.606C28.7475 13.1768 27.9359 10.8215 26.4498 8.93029C24.9637 7.03911 22.8924 5.72565 20.5792 5.20755C20.6065 4.77409 20.547 4.33949 20.4044 3.93052C20.2618 3.52155 20.039 3.14687 19.7499 2.82956C19.4608 2.51225 19.1115 2.25903 18.7234 2.0855C18.3352 1.91198 17.9166 1.82181 17.4933 1.82057C17.0699 1.81933 16.6508 1.90703 16.2617 2.07827C15.8726 2.24952 15.5219 2.50068 15.231 2.81629C14.9401 3.1319 14.7153 3.50526 14.5704 3.91339C14.4255 4.32152 14.3636 4.75576 14.3885 5.18936C12.0734 5.70682 10.0005 7.02141 8.51436 8.9147C7.02819 10.808 6.21815 13.166 6.21885 15.5969V23.6363C6.21606 23.985 6.11559 24.3255 5.92942 24.6173C5.74325 24.909 5.47924 25.1397 5.16885 25.2818L4.68742 25.5015C4.37593 25.6437 4.11136 25.8756 3.92577 26.169C3.74018 26.4624 3.64155 26.8047 3.64185 27.1545V28.4575C3.64165 28.5241 3.65428 28.59 3.679 28.6514C3.70372 28.7129 3.74004 28.7688 3.78588 28.8158C3.83172 28.8629 3.88618 28.9001 3.94611 28.9255C4.00604 28.9509 4.07027 28.9638 4.1351 28.9636H30.8311C30.8958 28.9636 30.9599 28.9505 31.0196 28.9251C31.0794 28.8996 31.1337 28.8623 31.1793 28.8153C31.225 28.7683 31.2612 28.7125 31.2858 28.6511C31.3105 28.5897 31.3231 28.5239 31.3229 28.4575V27.1545C31.3216 26.8047 31.222 26.4627 31.036 26.1695C30.8501 25.8763 30.5856 25.6443 30.2743 25.5015V25.5015Z" fill="url(#paint1_linear_2129_56239)"/>
<defs>
<linearGradient id="paint0_linear_2129_56239" x1="14.6184" y1="32.9488" x2="17.9421" y2="27.9216" gradientUnits="userSpaceOnUse">
<stop stop-color="#36A9E0"/>
<stop offset="1" stop-color="#0367B2"/>
</linearGradient>
<linearGradient id="paint1_linear_2129_56239" x1="3.64185" y1="27.2672" x2="34.2803" y2="1.22908" gradientUnits="userSpaceOnUse">
<stop stop-color="#36A9E0"/>
<stop offset="1" stop-color="#0367B2"/>
</linearGradient>
</defs>
</svg>
