<svg width="39" height="38" viewBox="0 0 39 38" fill="none" xmlns="http://www.w3.org/2000/svg">
<path d="M19.4764 19.8455C23.9512 19.8455 27.5788 16.1341 27.5788 11.5558C27.5788 6.97754 23.9512 3.26611 19.4764 3.26611C15.0016 3.26611 11.374 6.97754 11.374 11.5558C11.374 16.1341 15.0016 19.8455 19.4764 19.8455Z" fill="url(#paint0_linear_2129_56246)"/>
<path d="M25.8656 20.81C25.6443 20.7034 25.4005 20.6552 25.1564 20.6698C24.9122 20.6844 24.6755 20.7613 24.4679 20.8935C22.9693 21.8454 21.2404 22.3499 19.4764 22.3499C17.7124 22.3499 15.9835 21.8454 14.4849 20.8935C14.2777 20.7613 14.0413 20.6844 13.7975 20.6698C13.5537 20.6552 13.3103 20.7034 13.0894 20.81C10.7518 21.9331 8.73657 23.6536 7.23802 25.8055C5.73947 27.9573 4.8082 30.468 4.53403 33.0952C4.51424 33.3017 4.53694 33.5101 4.60069 33.707C4.66443 33.904 4.7678 34.085 4.90413 34.2386C5.04046 34.3921 5.20673 34.5148 5.39221 34.5986C5.57769 34.6824 5.77828 34.7254 5.98104 34.7251H32.9718C33.1747 34.7258 33.3755 34.6829 33.5613 34.5992C33.747 34.5156 33.9135 34.393 34.0501 34.2394C34.1867 34.0858 34.2902 33.9046 34.3541 33.7076C34.418 33.5105 34.4407 33.3019 34.4209 33.0952C34.1468 30.468 33.2155 27.9573 31.7169 25.8055C30.2184 23.6536 28.2031 21.9331 25.8656 20.81V20.81Z" fill="url(#paint1_linear_2129_56246)"/>
<defs>
<linearGradient id="paint0_linear_2129_56246" x1="11.374" y1="18.8093" x2="29.9445" y2="3.68368" gradientUnits="userSpaceOnUse">
<stop stop-color="#36A9E0"/>
<stop offset="1" stop-color="#0367B2"/>
</linearGradient>
<linearGradient id="paint1_linear_2129_56246" x1="4.5271" y1="33.8465" x2="18.2892" y2="9.45343" gradientUnits="userSpaceOnUse">
<stop stop-color="#36A9E0"/>
<stop offset="1" stop-color="#0367B2"/>
</linearGradient>
</defs>
</svg>
