<svg width="31" height="30" viewBox="0 0 31 30" fill="none" xmlns="http://www.w3.org/2000/svg">
<path d="M7.16744 5.68134C8.45085 4.53169 9.9583 3.66008 11.5949 3.12134C12.0629 3.70762 12.657 4.18087 13.3331 4.50592C14.0092 4.83097 14.7498 4.99945 15.4999 4.99884C16.2501 4.99945 16.9907 4.83097 17.6668 4.50592C18.3429 4.18087 18.937 3.70762 19.4049 3.12134C21.0416 3.66008 22.549 4.53169 23.8324 5.68134C23.5593 6.3794 23.4469 7.13001 23.5036 7.87745C23.5603 8.62489 23.7847 9.34996 24.1599 9.99884C24.5344 10.649 25.0507 11.2063 25.6703 11.6294C26.2899 12.0525 26.9969 12.3304 27.7387 12.4426C28.0894 14.1287 28.0894 15.869 27.7387 17.5551C26.2887 17.7776 24.9512 18.6301 24.1599 19.9988C23.7845 20.6479 23.56 21.3732 23.5033 22.1208C23.4466 22.8685 23.5591 23.6194 23.8324 24.3176C22.5489 25.4668 21.0415 26.338 19.4049 26.8763C18.9368 26.2903 18.3427 25.8173 17.6666 25.4924C16.9906 25.1676 16.25 24.9993 15.4999 25.0001C14.7498 24.9995 14.0092 25.168 13.3331 25.493C12.657 25.8181 12.0629 26.2913 11.5949 26.8776C9.9584 26.3392 8.45096 25.468 7.16744 24.3188C7.44075 23.6206 7.55324 22.8698 7.49654 22.1221C7.43984 21.3744 7.21542 20.6491 6.83994 20.0001C6.4653 19.3502 5.949 18.7931 5.32942 18.3703C4.70984 17.9474 4.00291 17.6696 3.26119 17.5576C2.91033 15.8711 2.91033 14.1304 3.26119 12.4438C4.00302 12.3317 4.71002 12.0537 5.32961 11.6306C5.9492 11.2075 6.46544 10.6502 6.83994 10.0001C7.21523 9.35121 7.43954 8.62614 7.49624 7.8787C7.55294 7.13126 7.44056 6.38065 7.16744 5.68259V5.68134ZM17.3749 18.2463C17.8049 18.0019 18.1822 17.6748 18.4852 17.284C18.7882 16.8931 19.0109 16.4462 19.1405 15.9689C19.2701 15.4917 19.3039 14.9935 19.2402 14.503C19.1765 14.0126 19.0163 13.5396 18.7691 13.1114C18.5218 12.6831 18.1922 12.3079 17.7994 12.0075C17.4065 11.7071 16.9581 11.4874 16.48 11.361C16.0019 11.2346 15.5035 11.204 15.0135 11.271C14.5235 11.338 14.0516 11.5012 13.6249 11.7513C12.7707 12.2522 12.1492 13.0705 11.896 14.0279C11.6429 14.9853 11.7788 16.0039 12.2739 16.8614C12.769 17.719 13.5833 18.3459 14.5389 18.6054C15.4946 18.8649 16.5141 18.7358 17.3749 18.2463V18.2463Z" fill="url(#paint0_linear_2129_56261)"/>
<defs>
<linearGradient id="paint0_linear_2129_56261" x1="2.99805" y1="25.3928" x2="29.9373" y2="1.7647" gradientUnits="userSpaceOnUse">
<stop stop-color="#36A9E0"/>
<stop offset="1" stop-color="#0367B2"/>
</linearGradient>
</defs>
</svg>
