<svg width="25" height="26" viewBox="0 0 25 26" fill="none" xmlns="http://www.w3.org/2000/svg">
<path d="M16.6699 0.936208V3.35864C16.6699 3.59959 16.8641 3.79492 17.1037 3.79492H18.4653C18.7049 3.79492 18.8991 3.59959 18.8991 3.35864V0.936208C18.8991 0.695257 18.7049 0.499927 18.4653 0.499927H17.1037C16.8641 0.499927 16.6699 0.695257 16.6699 0.936208Z" fill="#E6E8EC"/>
<path d="M5.43164 0.936208V3.35864C5.43164 3.59959 5.62585 3.79492 5.86542 3.79492H7.22702C7.46659 3.79492 7.6608 3.59959 7.6608 3.35864V0.936208C7.6608 0.695257 7.46659 0.499927 7.22702 0.499927H5.86542C5.62585 0.499927 5.43164 0.695257 5.43164 0.936208Z" fill="#E6E8EC"/>
<path d="M19.9553 3.2417H4.22536C3.10473 3.2417 2.02999 3.68943 1.23758 4.48641C0.44517 5.28338 0 6.3643 0 7.49139V19.6265C-2.78691e-08 20.1845 0.109302 20.737 0.321663 21.2525C0.534024 21.7681 0.845283 22.2365 1.23766 22.631C1.63004 23.0255 2.09585 23.3384 2.60849 23.5518C3.12113 23.7652 3.67054 23.875 4.22536 23.8748H14.4005C14.0462 23.4429 13.7496 22.9662 13.5182 22.4569H4.66986C3.83471 22.4569 3.03376 22.1232 2.44322 21.5293C1.85268 20.9353 1.52092 20.1298 1.52092 19.2898V12.5167C1.52092 12.1009 1.60238 11.6891 1.76064 11.3049C1.91891 10.9207 2.15088 10.5717 2.4433 10.2777C2.73572 9.98373 3.08287 9.75057 3.46491 9.59156C3.84695 9.43255 4.2564 9.35079 4.66986 9.35097H19.5108C20.3456 9.35097 21.1462 9.6845 21.7365 10.2782C22.3268 10.8719 22.6585 11.6771 22.6585 12.5167V14.3574C23.2314 14.7145 23.7447 15.1603 24.1794 15.6784V7.49139C24.1794 6.36454 23.7344 5.28382 22.9423 4.48688C22.1501 3.68995 21.0757 3.24206 19.9553 3.2417V3.2417Z" fill="#E6E8EC"/>
<path d="M19.308 14.0491C18.182 14.0491 17.0814 14.3849 16.1453 15.014C15.2091 15.6431 14.4794 16.5373 14.0486 17.5835C13.6177 18.6297 13.505 19.7809 13.7246 20.8916C13.9443 22.0022 14.4865 23.0224 15.2826 23.8231C16.0787 24.6239 17.0931 25.1692 18.1974 25.3901C19.3016 25.611 20.4463 25.4976 21.4865 25.0643C22.5267 24.6309 23.4158 23.8971 24.0413 22.9555C24.6668 22.0139 25.0007 20.907 25.0007 19.7746C25.0007 18.2561 24.4009 16.7998 23.3333 15.726C22.2657 14.6523 20.8178 14.0491 19.308 14.0491ZM19.308 24.6747C18.3444 24.6747 17.4024 24.3873 16.6012 23.8488C15.8 23.3104 15.1756 22.5451 14.8068 21.6498C14.4381 20.7544 14.3416 19.7691 14.5296 18.8186C14.7175 17.8681 15.1816 16.995 15.8629 16.3097C16.5443 15.6244 17.4124 15.1577 18.3575 14.9687C19.3026 14.7796 20.2822 14.8766 21.1724 15.2475C22.0627 15.6184 22.8236 16.2464 23.3589 17.0522C23.8942 17.8581 24.18 18.8054 24.18 19.7746C24.18 20.4181 24.054 21.0553 23.8091 21.6498C23.5643 22.2443 23.2054 22.7844 22.753 23.2395C22.3006 23.6945 21.7635 24.0554 21.1724 24.3017C20.5813 24.5479 19.9478 24.6747 19.308 24.6747V24.6747Z" fill="#E6E8EC"/>
<path d="M22.2539 20.3858V20.0693C22.2539 19.9221 22.1352 19.8027 21.9888 19.8027H19.2964C19.15 19.8027 19.0313 19.9221 19.0313 20.0693V20.3858C19.0313 20.533 19.15 20.6524 19.2964 20.6524H21.9888C22.1352 20.6524 22.2539 20.533 22.2539 20.3858Z" fill="#E6E8EC"/>
<path d="M19.5681 16.2708H19.3392C19.1691 16.2708 19.0312 16.4094 19.0312 16.5805V20.3427C19.0312 20.5137 19.1691 20.6524 19.3392 20.6524H19.5681C19.7382 20.6524 19.8761 20.5137 19.8761 20.3427V16.5805C19.8761 16.4094 19.7382 16.2708 19.5681 16.2708Z" fill="#E6E8EC"/>
<path d="M9.24529 11.3545H4.84454C4.21307 11.3545 3.70117 11.8693 3.70117 12.5044V14.0085C3.70117 14.6436 4.21307 15.1585 4.84454 15.1585H9.24529C9.87675 15.1585 10.3887 14.6436 10.3887 14.0085V12.5044C10.3887 11.8693 9.87675 11.3545 9.24529 11.3545Z" fill="#E6E8EC"/>
</svg>
