<svg width="44" height="44" viewBox="0 0 44 44" fill="none" xmlns="http://www.w3.org/2000/svg">
<path d="M38.6992 23.9607L34.9482 27.803C34.8258 27.9289 34.6653 28.0108 34.4919 28.0358C34.3185 28.0608 34.142 28.0276 33.9902 27.9414L28.5736 24.8662C28.4429 24.7914 28.3364 24.6808 28.2666 24.5474C28.1967 24.414 28.1664 24.2632 28.179 24.1126L28.4544 21.127C28.47 20.9537 28.428 20.7804 28.335 20.6341C28.2419 20.4877 28.103 20.3765 27.9397 20.3175C26.8499 19.9248 24.3809 19.1725 21.989 19.3784C19.6836 19.584 17.3219 20.1794 16.1946 20.4976C16.0081 20.5501 15.8469 20.6692 15.7416 20.8323C15.6364 20.9954 15.5944 21.191 15.6237 21.3822L16.027 24.0606C16.0511 24.2191 16.0263 24.3815 15.9561 24.5262C15.8859 24.6709 15.7734 24.7911 15.6337 24.8709L10.1821 27.9868C10.0333 28.0715 9.86143 28.106 9.69207 28.0853C9.52272 28.0645 9.36491 27.9896 9.24212 27.8717L5.48109 24.2002C5.34149 24.0638 5.25769 23.8802 5.24587 23.6848C5.23405 23.4895 5.29505 23.2963 5.41708 23.1425C6.98331 21.1587 12.8584 14.776 23.2639 15.287C33.5667 15.7932 37.7346 21.2319 38.8197 22.9899C38.9111 23.1412 38.9489 23.3191 38.927 23.4951C38.9052 23.6711 38.825 23.835 38.6992 23.9607Z" fill="#E6E8EC"/>
</svg>
