<svg width="23" height="22" viewBox="0 0 23 22" fill="none" xmlns="http://www.w3.org/2000/svg">
<path d="M11.5 0C9.22544 2.41323e-08 7.00197 0.64518 5.11077 1.85395C3.21957 3.06272 1.74558 4.78078 0.875226 6.79086C0.00486911 8.80094 -0.222769 11.0128 0.2211 13.1466C0.664969 15.2804 1.76041 17.2404 3.36888 18.7788C4.97736 20.3171 7.02662 21.3646 9.25751 21.7888C11.4884 22.2131 13.8007 21.995 15.902 21.1622C18.0034 20.3294 19.7993 18.9192 21.0627 17.1101C22.3262 15.3009 23.0003 13.174 23 10.9984C22.9995 8.08126 21.7877 5.28379 19.6311 3.22125C17.4745 1.1587 14.5497 -3.23562e-08 11.5 0V0ZM12.699 16.7113C12.3118 16.9128 11.8733 17.0065 11.4332 16.9817C10.9877 17.004 10.5442 16.91 10.1503 16.7097C9.89005 16.0859 9.89005 15.3904 10.1503 14.7666C10.5498 14.5729 10.9942 14.4794 11.4418 14.4946C11.8782 14.476 12.3118 14.57 12.6973 14.7666C12.96 15.3899 12.96 16.0864 12.6973 16.7097L12.699 16.7113ZM12.4318 13.2708C11.7713 13.4303 11.0797 13.4303 10.4192 13.2708L10.0629 5.72609C10.7481 5.24769 11.6861 5.00903 12.8771 5.01013L13.0381 5.1969L12.4318 13.2708Z" fill="#E6E8EC"/>
</svg>
