<svg width="25" height="26" viewBox="0 0 25 26" fill="none" xmlns="http://www.w3.org/2000/svg">
<path d="M18.7507 7.29167C18.7507 7.56781 18.9745 7.79167 19.2507 7.79167H22.4173C22.6935 7.79167 22.9173 8.01552 22.9173 8.29167V9.375C22.9173 9.65114 22.6935 9.875 22.4173 9.875H17.1673C16.8912 9.875 16.6673 9.65114 16.6673 9.375V4.125C16.6673 3.84886 16.8912 3.625 17.1673 3.625H18.2507C18.5268 3.625 18.7507 3.84886 18.7507 4.125V7.29167ZM8.33398 9.375C8.33398 9.65114 8.11013 9.875 7.83398 9.875H2.58398C2.30784 9.875 2.08398 9.65114 2.08398 9.375V8.29167C2.08398 8.01552 2.30784 7.79167 2.58398 7.79167H5.75065C6.02679 7.79167 6.25065 7.56781 6.25065 7.29167V4.125C6.25065 3.84886 6.47451 3.625 6.75065 3.625H7.83398C8.11013 3.625 8.33398 3.84886 8.33398 4.125V9.375ZM19.2507 18.2083C18.9745 18.2083 18.7507 18.4322 18.7507 18.7083V21.875C18.7507 22.1511 18.5268 22.375 18.2507 22.375H17.1673C16.8912 22.375 16.6673 22.1511 16.6673 21.875V16.625C16.6673 16.3489 16.8912 16.125 17.1673 16.125H22.4173C22.6935 16.125 22.9173 16.3489 22.9173 16.625V17.7083C22.9173 17.9845 22.6935 18.2083 22.4173 18.2083H19.2507ZM7.83398 16.125C8.11013 16.125 8.33398 16.3489 8.33398 16.625V21.875C8.33398 22.1511 8.11013 22.375 7.83398 22.375H6.75065C6.47451 22.375 6.25065 22.1511 6.25065 21.875V18.7083C6.25065 18.4322 6.02679 18.2083 5.75065 18.2083H2.58398C2.30784 18.2083 2.08398 17.9845 2.08398 17.7083V16.625C2.08398 16.3489 2.30784 16.125 2.58398 16.125H7.83398Z" fill="#E6E8EC"/>
</svg>
