<svg width="39" height="39" viewBox="0 0 39 39" fill="none" xmlns="http://www.w3.org/2000/svg">
<path d="M24.98 11.9758C24.98 8.99827 22.5662 6.58447 19.5886 6.58447C16.6111 6.58447 14.1973 8.99827 14.1973 11.9758V17.3256C14.1973 20.3032 16.6111 22.717 19.5886 22.717C22.5662 22.717 24.98 20.3032 24.98 17.3256V11.9758Z" fill="#E6E8EC"/>
<path d="M27.5319 18.2269H26.3253C26.2204 18.2266 26.1188 18.2637 26.0389 18.3316C25.9589 18.3996 25.9059 18.4939 25.8894 18.5975C25.6583 20.1114 24.8926 21.4925 23.7308 22.4904C22.5691 23.4883 21.0883 24.0369 19.5568 24.0369C18.0254 24.0369 16.5446 23.4883 15.3828 22.4904C14.2211 21.4925 13.4553 20.1114 13.2243 18.5975C13.2074 18.494 13.1543 18.4 13.0744 18.3321C12.9946 18.2642 12.8932 18.227 12.7884 18.2269H11.5857C11.5231 18.2268 11.4611 18.2399 11.4039 18.2655C11.3467 18.2911 11.2956 18.3285 11.254 18.3754C11.2124 18.4222 11.1813 18.4774 11.1626 18.5372C11.144 18.597 11.1382 18.6601 11.1458 18.7223C11.3554 20.5451 12.1478 22.2515 13.4051 23.5878C14.6625 24.924 16.3176 25.8187 18.1243 26.1386C18.2261 26.1573 18.318 26.2112 18.384 26.2909C18.4499 26.3706 18.4857 26.4711 18.4849 26.5745V30.2996C18.4849 30.3577 18.4734 30.4154 18.4511 30.4691C18.4288 30.5228 18.396 30.5716 18.3548 30.6127C18.3136 30.6538 18.2646 30.6863 18.2108 30.7083C18.1569 30.7304 18.0993 30.7417 18.0411 30.7414H14.639C14.5808 30.7414 14.5232 30.7529 14.4695 30.7752C14.4157 30.7976 14.3669 30.8303 14.3259 30.8715C14.2848 30.9128 14.2523 30.9617 14.2302 31.0155C14.2081 31.0694 14.1969 31.127 14.1972 31.1852V32.5247C14.1969 32.5829 14.2081 32.6405 14.2302 32.6944C14.2523 32.7482 14.2848 32.7971 14.3259 32.8384C14.3669 32.8796 14.4157 32.9123 14.4695 32.9347C14.5232 32.957 14.5808 32.9685 14.639 32.9685H24.546C24.6042 32.9685 24.6618 32.957 24.7155 32.9347C24.7693 32.9123 24.8181 32.8796 24.8591 32.8384C24.9002 32.7971 24.9327 32.7482 24.9548 32.6944C24.9769 32.6405 24.9881 32.5829 24.9878 32.5247V31.1852C24.9881 31.127 24.9769 31.0694 24.9548 31.0155C24.9327 30.9617 24.9002 30.9128 24.8591 30.8715C24.8181 30.8303 24.7693 30.7976 24.7155 30.7752C24.6618 30.7529 24.6042 30.7414 24.546 30.7414H21.142C21.0248 30.7414 20.9124 30.6949 20.8295 30.612C20.7467 30.5291 20.7001 30.4167 20.7001 30.2996V26.5567C20.6996 26.4541 20.735 26.3546 20.8002 26.2754C20.8653 26.1962 20.956 26.1422 21.0568 26.1228C22.8499 25.7918 24.4895 24.8943 25.7345 23.5621C26.9796 22.23 27.7645 20.5336 27.9738 18.7223C27.9808 18.66 27.9745 18.597 27.9555 18.5374C27.9365 18.4777 27.9051 18.4227 27.8634 18.376C27.8217 18.3292 27.7707 18.2918 27.7136 18.2661C27.6565 18.2405 27.5946 18.2271 27.5319 18.2269V18.2269Z" fill="#E6E8EC"/>
<rect y="33.2861" width="45.7267" height="1.92631" rx="0.963156" transform="rotate(-39.741 0 33.2861)" fill="#F39325"/>
</svg>
