<svg width="30" height="30" viewBox="0 0 30 30" fill="none" xmlns="http://www.w3.org/2000/svg">
<rect width="30" height="30" rx="15" fill="#E6E8EC" fill-opacity="0.2"/>
<path d="M16.606 9.12427L15.8973 9.62197L14.1935 10.8182L12.1229 12.2701L10.3395 13.5256C10.0495 13.7291 9.75951 13.9318 9.47045 14.1362L9.45841 14.1452C9.31888 14.2243 9.20315 14.3373 9.12273 14.4731C9.04231 14.6088 9 14.7626 9 14.9191C9 15.0756 9.04231 15.2294 9.12273 15.3652C9.20315 15.5009 9.31888 15.614 9.45841 15.693L10.169 16.2095L11.8746 17.4489L13.9397 18.9482L15.7222 20.2432C16.0112 20.453 16.2947 20.6736 16.5912 20.8709L16.6032 20.8799C16.783 21.0099 17.1119 21.0251 17.3175 20.9695C17.435 20.9384 17.545 20.8852 17.6411 20.8129C17.7373 20.7406 17.8178 20.6506 17.878 20.5482C17.9383 20.4457 17.9771 20.3328 17.9922 20.2158C18.0073 20.0989 17.9984 19.9802 17.9661 19.8665L17.8734 19.6522C17.7931 19.5194 17.6789 19.4089 17.5417 19.3312L16.8339 18.8164L15.1246 17.5789L13.0595 16.0795L11.2752 14.781C10.9861 14.5712 10.7008 14.3542 10.4062 14.1533L10.3941 14.1452V15.693L11.1029 15.1953L12.8066 13.9999L14.8782 12.5454L16.6607 11.2899C16.9507 11.0864 17.2406 10.8846 17.5297 10.6801L17.5427 10.6712C17.7467 10.5472 17.8977 10.3562 17.9679 10.1331C18.0323 9.90013 17.999 9.65196 17.8753 9.44262C17.7529 9.24 17.5533 9.09191 17.3194 9.03011C17.0896 8.97989 16.8043 8.98169 16.6051 9.11979L16.606 9.12427Z" fill="#363535"/>
<rect x="0.5" y="0.5" width="29" height="29" rx="14.5" stroke="#E6E8EC" stroke-opacity="0.2"/>
</svg>
