<svg width="20" height="21" viewBox="0 0 20 21" fill="none" xmlns="http://www.w3.org/2000/svg">
<path d="M14.1673 8.16659L18.5115 5.12492C18.5739 5.08113 18.6472 5.05533 18.7234 5.05034C18.7995 5.04534 18.8755 5.06134 18.9432 5.09658C19.0108 5.13183 19.0675 5.18497 19.107 5.25021C19.1465 5.31546 19.1674 5.3903 19.1673 5.46659V15.5333C19.1674 15.6095 19.1465 15.6844 19.107 15.7496C19.0675 15.8149 19.0108 15.868 18.9432 15.9033C18.8755 15.9385 18.7995 15.9545 18.7234 15.9495C18.6472 15.9445 18.5739 15.9187 18.5115 15.8749L14.1673 12.8333V16.3333C14.1673 16.5543 14.0795 16.7662 13.9232 16.9225C13.767 17.0788 13.555 17.1666 13.334 17.1666H1.66732C1.4463 17.1666 1.23434 17.0788 1.07806 16.9225C0.921782 16.7662 0.833984 16.5543 0.833984 16.3333V4.66659C0.833984 4.44557 0.921782 4.23361 1.07806 4.07733C1.23434 3.92105 1.4463 3.83325 1.66732 3.83325H13.334C13.555 3.83325 13.767 3.92105 13.9232 4.07733C14.0795 4.23361 14.1673 4.44557 14.1673 4.66659V8.16659ZM4.16732 7.16659V8.83325H5.83398V7.16659H4.16732Z" fill="#363535"/>
</svg>
