<svg width="71" height="93" viewBox="0 0 71 93" fill="none" xmlns="http://www.w3.org/2000/svg">
<path d="M40.9845 56.9162L10.3122 40.3169C8.43074 39.2987 6.11868 40.5206 5.90003 42.6487L1.43598 86.0955C1.1673 88.7105 4.15292 90.3819 6.2417 88.7859L41.3781 61.9384C43.1073 60.6171 42.8984 57.952 40.9845 56.9162Z" fill="url(#paint0_linear_2541_56901)"/>
<path d="M56.6933 41.902L40.5539 45.2541C39.632 45.4456 38.9805 44.3729 39.5755 43.6431L50.6259 30.089C51.0847 29.5262 51.9716 29.6247 52.2958 30.2745L57.3848 40.4765C57.6775 41.0635 57.3355 41.7686 56.6933 41.902Z" fill="url(#paint1_linear_2541_56901)"/>
<path d="M19.0217 6.4291L22.9572 3.70453C23.6964 3.19272 24.6816 3.84015 24.5055 4.72206L23.2338 11.0894C23.0633 11.9433 21.9601 12.1879 21.4467 11.4858L18.7829 7.84299C18.4508 7.38886 18.5588 6.7496 19.0217 6.4291Z" fill="url(#paint2_linear_2541_56901)"/>
<path d="M40.849 14.8666L32.6672 27.825C32.1576 28.6321 30.9172 28.3335 30.8286 27.3824L29.3861 11.888C29.3217 11.1957 29.9635 10.6501 30.6344 10.8269L40.2588 13.3629C40.9123 13.5351 41.2104 14.2944 40.849 14.8666Z" fill="url(#paint3_linear_2541_56901)"/>
<path d="M11.9417 5.63729L13.1841 10.5709C13.4204 11.5092 12.3192 12.203 11.5751 11.5846L7.76982 8.4221C7.26072 7.99899 7.29605 7.20671 7.84081 6.83026L10.4037 5.05916C10.9779 4.66241 11.7713 4.96068 11.9417 5.63729Z" fill="url(#paint4_linear_2541_56901)"/>
<path d="M67.4441 40.7851L62.5476 39.4351C61.6157 39.1782 61.553 37.8784 62.4559 37.5348L67.079 35.7754C67.6986 35.5396 68.3722 35.9627 68.4304 36.6242L68.7038 39.7337C68.7649 40.4284 68.1156 40.9703 67.4441 40.7851Z" fill="#E97B1A"/>
<path d="M52.3222 5.83214L48.1619 9.99174C47.4882 10.6653 46.3459 10.1042 46.4655 9.15842L47.2193 3.19552C47.3071 2.50129 48.0604 2.10861 48.6776 2.43536L52.0841 4.23866C52.6788 4.5535 52.7987 5.35573 52.3222 5.83214Z" fill="url(#paint5_linear_2541_56901)"/>
<path d="M26.9002 28.2136L25.1743 33.843C24.895 34.7541 23.6222 34.7939 23.2848 33.902L21.1589 28.2827C20.9116 27.6291 21.3919 26.93 22.0895 26.9282L25.9413 26.918C26.6148 26.9163 27.0979 27.5689 26.9002 28.2136Z" fill="#E97B1A"/>
<path d="M53.6049 52.5469L48.1366 50.3906C47.2512 50.0415 47.3068 48.7677 48.2192 48.4989L53.9724 46.8043C54.6423 46.607 55.3029 47.1418 55.2513 47.8396L54.9663 51.6905C54.9166 52.3627 54.2312 52.7939 53.6049 52.5469Z" fill="url(#paint6_linear_2541_56901)"/>
<path d="M10.7365 21.7999L13.7846 31.4242C14.061 32.2968 13.1168 33.0517 12.3265 32.5897L1.87418 26.48C1.18054 26.0745 1.22439 25.0578 1.95038 24.7132L9.35454 21.1987C9.9023 20.9387 10.5534 21.222 10.7365 21.7999Z" fill="url(#paint7_linear_2541_56901)"/>
<path d="M55.1081 20.9266L50.4806 22.0037C49.5914 22.2107 48.9125 21.2157 49.4296 20.4633L52.7044 15.6981C53.1642 15.029 54.1878 15.158 54.4674 15.9203L55.8201 19.6083C56.027 20.1725 55.6933 20.7904 55.1081 20.9266Z" fill="url(#paint8_linear_2541_56901)"/>
<defs>
<linearGradient id="paint0_linear_2541_56901" x1="0.725315" y1="65.5881" x2="45.0638" y2="65.5881" gradientUnits="userSpaceOnUse">
<stop stop-color="#F28D00"/>
<stop offset="1" stop-color="#F9BA6E"/>
</linearGradient>
<linearGradient id="paint1_linear_2541_56901" x1="37.7944" y1="37.3577" x2="57.9647" y2="37.3577" gradientUnits="userSpaceOnUse">
<stop stop-color="#F28D00"/>
<stop offset="1" stop-color="#F9BA6E"/>
</linearGradient>
<linearGradient id="paint2_linear_2541_56901" x1="25.175" y1="2.88376" x2="17.3507" y2="12.6878" gradientUnits="userSpaceOnUse">
<stop stop-color="#36A9E0"/>
<stop offset="1" stop-color="#0367B2"/>
</linearGradient>
<linearGradient id="paint3_linear_2541_56901" x1="25.67" y1="25.2015" x2="38.8678" y2="11.1615" gradientUnits="userSpaceOnUse">
<stop stop-color="#F28D00"/>
<stop offset="1" stop-color="#F9BA6E"/>
</linearGradient>
<linearGradient id="paint4_linear_2541_56901" x1="10.5786" y1="13.7889" x2="9.89134" y2="4.36315" gradientUnits="userSpaceOnUse">
<stop stop-color="#F28D00"/>
<stop offset="1" stop-color="#F9BA6E"/>
</linearGradient>
<linearGradient id="paint5_linear_2541_56901" x1="45.8273" y1="11.6492" x2="47.9136" y2="-1.20454" gradientUnits="userSpaceOnUse">
<stop stop-color="#36A9E0"/>
<stop offset="1" stop-color="#0367B2"/>
</linearGradient>
<linearGradient id="paint6_linear_2541_56901" x1="45.6868" y1="48.9098" x2="58.2744" y2="45.6855" gradientUnits="userSpaceOnUse">
<stop stop-color="#36A9E0"/>
<stop offset="1" stop-color="#0367B2"/>
</linearGradient>
<linearGradient id="paint7_linear_2541_56901" x1="14.6167" y1="34.7373" x2="0.448925" y2="22.5646" gradientUnits="userSpaceOnUse">
<stop stop-color="#DB590B"/>
<stop offset="1" stop-color="#F39325"/>
</linearGradient>
<linearGradient id="paint8_linear_2541_56901" x1="47.4577" y1="22.5748" x2="55.7741" y2="14.5765" gradientUnits="userSpaceOnUse">
<stop stop-color="#DB590B"/>
<stop offset="1" stop-color="#F39325"/>
</linearGradient>
</defs>
</svg>
