<svg width="37" height="34" viewBox="0 0 37 34" fill="none" xmlns="http://www.w3.org/2000/svg">
<path d="M29.4991 24.4908H22.8725L18.4616 30.3877L14.4441 24.4908H7.1476C4.21935 24.4908 1.84595 22.3986 1.84595 19.8136V8.27515C1.84595 5.69547 4.21935 3.5979 7.1476 3.5979H29.4991C32.4274 3.5979 34.8008 5.68827 34.8008 8.27515V19.819C34.8008 22.3986 32.4274 24.4908 29.4991 24.4908Z" fill="url(#paint0_linear_2125_49585)"/>
<path d="M24.7839 15.6417H12.6998C12.4979 15.6417 12.3342 15.8004 12.3342 15.9961V16.1202C12.3342 16.316 12.4979 16.4746 12.6998 16.4746H24.7839C24.9858 16.4746 25.1495 16.316 25.1495 16.1202V15.9961C25.1495 15.8004 24.9858 15.6417 24.7839 15.6417Z" fill="white"/>
<path d="M28.7289 12.3228H8.75449C8.54234 12.3228 8.37036 12.4895 8.37036 12.6951V12.7833C8.37036 12.9889 8.54234 13.1557 8.75449 13.1557H28.7289C28.9411 13.1557 29.113 12.9889 29.113 12.7833V12.6951C29.113 12.4895 28.9411 12.3228 28.7289 12.3228Z" fill="white"/>
<defs>
<linearGradient id="paint0_linear_2125_49585" x1="1.84595" y1="16.9964" x2="34.8008" y2="16.9964" gradientUnits="userSpaceOnUse">
<stop stop-color="#F28D00"/>
<stop offset="0.18" stop-color="#F49718"/>
<stop offset="0.55" stop-color="#F6AA47"/>
<stop offset="0.83" stop-color="#F8B663"/>
<stop offset="1" stop-color="#F9BA6E"/>
</linearGradient>
</defs>
</svg>
