<?xml version="1.0" standalone="no"?>
<!DOCTYPE svg PUBLIC "-//W3C//DTD SVG 20010904//EN"
 "http://www.w3.org/TR/2001/REC-SVG-20010904/DTD/svg10.dtd">
<svg version="1.0" xmlns="http://www.w3.org/2000/svg"
 width="50.000000pt" height="50.000000pt" viewBox="0 0 50.000000 50.000000"
 preserveAspectRatio="xMidYMid meet">

<g transform="translate(0.000000,50.000000) scale(0.100000,-0.100000)"
fill="#db590b" stroke="none">
<path d="M192 488 c-6 -6 -12 -18 -12 -25 0 -9 -16 -13 -50 -13 -44 0 -66 -12
-42 -22 4 -1 16 -95 26 -208 11 -128 22 -208 29 -212 16 -10 198 -10 214 0 7
4 18 84 29 212 10 113 22 207 26 208 24 10 2 22 -40 22 -39 0 -49 4 -57 23 -8
18 -19 23 -60 25 -30 2 -55 -2 -63 -10z m108 -23 c0 -11 -12 -15 -50 -15 -38
0 -50 4 -50 15 0 11 12 15 50 15 38 0 50 -4 50 -15z m-100 -240 c0 -110 -4
-175 -10 -175 -6 0 -10 65 -10 175 0 110 4 175 10 175 6 0 10 -65 10 -175z
m60 0 c0 -110 -4 -175 -10 -175 -6 0 -10 65 -10 175 0 110 4 175 10 175 6 0
10 -65 10 -175z m60 0 c0 -110 -4 -175 -10 -175 -6 0 -10 65 -10 175 0 110 4
175 10 175 6 0 10 -65 10 -175z"/>
</g>
</svg>
