<?xml version="1.0" standalone="no"?>
<!DOCTYPE svg PUBLIC "-//W3C//DTD SVG 20010904//EN"
 "http://www.w3.org/TR/2001/REC-SVG-20010904/DTD/svg10.dtd">
<svg version="1.0" xmlns="http://www.w3.org/2000/svg"
 width="50.000000pt" height="50.000000pt" viewBox="0 0 50.000000 50.000000"
 preserveAspectRatio="xMidYMid meet">

<g transform="translate(0.000000,50.000000) scale(0.100000,-0.100000)"
fill="#db590b" stroke="none">
<path d="M213 403 l-30 -78 -88 -7 c-49 -4 -90 -9 -91 -11 -2 -2 18 -20 44
-40 26 -20 57 -46 70 -56 l22 -19 -21 -77 c-11 -41 -19 -80 -17 -86 2 -5 36
11 76 37 l72 46 72 -46 c40 -26 74 -42 76 -37 2 6 -6 45 -18 87 -18 67 -19 78
-6 88 63 47 115 92 116 98 0 6 -57 15 -140 21 -33 2 -35 5 -64 80 -16 42 -32
77 -36 77 -4 0 -21 -35 -37 -77z"/>
</g>
</svg>
