<svg width="55" height="56" viewBox="0 0 55 56" fill="none" xmlns="http://www.w3.org/2000/svg">
<path d="M36.6733 1.92542V7.16127C36.6733 7.68206 37.1006 8.10425 37.6277 8.10425H40.6232C41.1502 8.10425 41.5775 7.68206 41.5775 7.16127V1.92542C41.5775 1.40462 41.1502 0.982435 40.6232 0.982435H37.6277C37.1006 0.982435 36.6733 1.40462 36.6733 1.92542Z" fill="url(#paint0_linear_3494_28560)"/>
<path d="M11.9497 1.92542V7.16127C11.9497 7.68206 12.377 8.10425 12.904 8.10425H15.8995C16.4266 8.10425 16.8539 7.68206 16.8539 7.16127V1.92542C16.8539 1.40462 16.4266 0.982435 15.8995 0.982435H12.904C12.377 0.982435 11.9497 1.40462 11.9497 1.92542Z" fill="url(#paint1_linear_3494_28560)"/>
<path d="M43.9017 6.9082H9.2958C6.8304 6.9082 4.46598 7.87594 2.72268 9.59852C0.979375 11.3211 0 13.6574 0 16.0935V42.3223C-6.1312e-08 43.5284 0.240464 44.7226 0.707658 45.8369C1.17485 46.9511 1.85962 47.9635 2.72286 48.8162C3.58609 49.6689 4.61087 50.3452 5.73868 50.8065C6.86648 51.2678 8.0752 51.5051 9.2958 51.5047H31.6811C30.9016 50.5711 30.2491 49.5408 29.7401 48.44H10.2737C8.43635 48.44 6.67427 47.7188 5.37508 46.435C4.07589 45.1513 3.34602 43.4102 3.34602 41.5947V26.9552C3.34602 26.0564 3.52523 25.1664 3.87341 24.3361C4.2216 23.5057 4.73193 22.7513 5.37526 22.1159C6.01859 21.4805 6.78232 20.9765 7.62281 20.6328C8.46329 20.2891 9.36407 20.1124 10.2737 20.1128H42.9239C44.7604 20.1128 46.5217 20.8337 47.8204 22.1169C49.119 23.4001 49.8486 25.1405 49.8486 26.9552V30.9338C51.109 31.7056 52.2383 32.6692 53.1946 33.7889V16.0935C53.1946 13.6579 52.2156 11.322 50.473 9.59955C48.7303 7.87705 46.3666 6.90897 43.9017 6.9082Z" fill="url(#paint2_linear_3494_28560)"/>
<path d="M42.4762 30.2672C39.9991 30.2672 37.5778 30.993 35.5182 32.3528C33.4586 33.7126 31.8534 35.6453 30.9055 37.9066C29.9576 40.1678 29.7096 42.6561 30.1928 45.0566C30.676 47.4572 31.8688 49.6622 33.6203 51.3929C35.3719 53.1236 37.6034 54.3022 40.0328 54.7797C42.4623 55.2572 44.9804 55.0121 47.2689 54.0755C49.5573 53.1388 51.5133 51.5527 52.8895 49.5176C54.2656 47.4825 55.0002 45.0899 55.0002 42.6423C55.0002 39.3603 53.6807 36.2126 51.332 33.8918C48.9833 31.571 45.7977 30.2672 42.4762 30.2672ZM42.4762 53.2334C40.3562 53.2334 38.2839 52.6122 36.5213 51.4485C34.7587 50.2847 33.3849 48.6306 32.5736 46.6954C31.7623 44.7601 31.5501 42.6306 31.9637 40.5761C32.3772 38.5217 33.3981 36.6345 34.8971 35.1533C36.3961 33.6722 38.3059 32.6635 40.3851 32.2548C42.4643 31.8461 44.6194 32.0559 46.5779 32.8575C48.5365 33.6591 50.2105 35.0166 51.3882 36.7583C52.566 38.5 53.1946 40.5476 53.1946 42.6423C53.1946 44.0332 52.9174 45.4104 52.3787 46.6954C51.8401 47.9803 51.0505 49.1479 50.0552 50.1313C49.0599 51.1148 47.8784 51.8949 46.5779 52.4272C45.2775 52.9594 43.8837 53.2334 42.4762 53.2334Z" fill="url(#paint3_linear_3494_28560)"/>
<path d="M20.3411 24.4436H10.6594C9.27023 24.4436 8.14404 25.5564 8.14404 26.9291V30.1801C8.14404 31.5528 9.27023 32.6656 10.6594 32.6656H20.3411C21.7303 32.6656 22.8565 31.5528 22.8565 30.1801V26.9291C22.8565 25.5564 21.7303 24.4436 20.3411 24.4436Z" fill="url(#paint4_linear_3494_28560)"/>
<path d="M51.2617 33.9202C49.518 32.1972 47.2964 31.0239 44.8778 30.5485C42.4591 30.0731 39.9522 30.3171 37.6739 31.2496C35.3956 32.1821 33.4483 33.7612 32.0783 35.7872C30.7083 37.8132 29.977 40.1952 29.977 42.6319C29.977 45.0685 30.7083 47.4505 32.0783 49.4765C33.4483 51.5026 35.3956 53.0817 37.6739 54.0141C39.9522 54.9466 42.4591 55.1906 44.8778 54.7152C47.2964 54.2398 49.518 53.0665 51.2617 51.3435C53.6 49.033 54.9136 45.8993 54.9136 42.6319C54.9136 39.3644 53.6 36.2307 51.2617 33.9202ZM43.3572 49.7741C43.3573 49.887 43.3349 49.9988 43.2912 50.1031C43.2475 50.2074 43.1835 50.3022 43.1027 50.382C43.0219 50.4619 42.926 50.5252 42.8204 50.5683C42.7148 50.6115 42.6017 50.6336 42.4874 50.6335L42.4137 50.6335C42.2995 50.6336 42.1863 50.6115 42.0808 50.5683C41.9752 50.5252 41.8793 50.4619 41.7985 50.382C41.7177 50.3022 41.6536 50.2074 41.6099 50.1031C41.5663 49.9988 41.5438 49.887 41.5439 49.7741V43.5329L35.2277 43.5329C35.1134 43.533 35.0003 43.5109 34.8947 43.4677C34.7892 43.4245 34.6932 43.3612 34.6124 43.2814C34.5317 43.2016 34.4676 43.1068 34.4239 43.0025C34.3802 42.8982 34.3578 42.7864 34.3579 42.6735L34.3566 42.5993C34.3569 42.3715 34.4486 42.1531 34.6117 41.9919C34.7747 41.8308 34.9958 41.7402 35.2264 41.7399H41.5426L41.5426 35.4987C41.5428 35.2712 41.6343 35.053 41.7972 34.8921C41.96 34.7312 42.1808 34.6407 42.4111 34.6406L42.4874 34.6406C42.718 34.6409 42.9391 34.7315 43.1021 34.8926C43.2652 35.0537 43.3569 35.2722 43.3572 35.5L43.3572 41.7412H49.6735C49.9041 41.7415 50.1251 41.8321 50.2882 41.9932C50.4512 42.1544 50.543 42.3728 50.5433 42.6006L50.5419 42.6748C50.5424 42.7876 50.5202 42.8993 50.4767 43.0037C50.4332 43.108 50.3692 43.2027 50.2885 43.2825C50.2078 43.3623 50.1119 43.4255 50.0063 43.4684C49.9007 43.5114 49.7876 43.5333 49.6735 43.5329L43.3572 43.5329V49.7741Z" fill="url(#paint5_linear_3494_28560)"/>
<defs>
<linearGradient id="paint0_linear_3494_28560" x1="39.1239" y1="11.4833" x2="39.1239" y2="-0.0274824" gradientUnits="userSpaceOnUse">
<stop stop-color="#F28D00"/>
<stop offset="0.18" stop-color="#F49718"/>
<stop offset="0.55" stop-color="#F6AA47"/>
<stop offset="0.83" stop-color="#F8B663"/>
<stop offset="1" stop-color="#F9BA6E"/>
</linearGradient>
<linearGradient id="paint1_linear_3494_28560" x1="1022.95" y1="597.389" x2="1022.95" y2="405.735" gradientUnits="userSpaceOnUse">
<stop stop-color="#F28D00"/>
<stop offset="0.18" stop-color="#F49718"/>
<stop offset="0.55" stop-color="#F6AA47"/>
<stop offset="0.83" stop-color="#F8B663"/>
<stop offset="1" stop-color="#F9BA6E"/>
</linearGradient>
<linearGradient id="paint2_linear_3494_28560" x1="-0.00149623" y1="29.2058" x2="53.1961" y2="29.2058" gradientUnits="userSpaceOnUse">
<stop stop-color="#F28D00"/>
<stop offset="1" stop-color="#F9BA6E"/>
</linearGradient>
<linearGradient id="paint3_linear_3494_28560" x1="4869.98" y1="5720.36" x2="7000.06" y2="5720.36" gradientUnits="userSpaceOnUse">
<stop stop-color="#F28D00"/>
<stop offset="0.18" stop-color="#F49718"/>
<stop offset="0.55" stop-color="#F6AA47"/>
<stop offset="0.83" stop-color="#F8B663"/>
<stop offset="1" stop-color="#F9BA6E"/>
</linearGradient>
<linearGradient id="paint4_linear_3494_28560" x1="8.14363" y1="28.5545" x2="22.8569" y2="28.5545" gradientUnits="userSpaceOnUse">
<stop stop-color="#F28D00"/>
<stop offset="1" stop-color="#F9BA6E"/>
</linearGradient>
<linearGradient id="paint5_linear_3494_28560" x1="33.6286" y1="33.9195" x2="51.0516" y2="51.5521" gradientUnits="userSpaceOnUse">
<stop stop-color="#F28D00"/>
<stop offset="1" stop-color="#F9BA6E"/>
</linearGradient>
</defs>
</svg>
