<svg width="20" height="21" viewBox="0 0 20 21" fill="none" xmlns="http://www.w3.org/2000/svg">
<path d="M4.90815 13.8333H1.66732C1.4463 13.8333 1.23434 13.7455 1.07806 13.5892C0.921782 13.4329 0.833984 13.2209 0.833984 12.9999V7.99994C0.833984 7.77892 0.921782 7.56696 1.07806 7.41068C1.23434 7.2544 1.4463 7.1666 1.66732 7.1666H4.90815L9.31982 3.5566C9.38086 3.50656 9.45486 3.47488 9.53321 3.46526C9.61155 3.45564 9.69102 3.46848 9.76235 3.50227C9.83369 3.53606 9.89396 3.58942 9.93615 3.65613C9.97833 3.72284 10.0007 3.80017 10.0007 3.8791V17.1208C10.0007 17.1997 9.97833 17.277 9.93615 17.3437C9.89396 17.4105 9.83369 17.4638 9.76235 17.4976C9.69102 17.5314 9.61155 17.5442 9.53321 17.5346C9.45486 17.525 9.38086 17.4933 9.31982 17.4433L4.90898 13.8333H4.90815ZM16.1723 17.2783L14.9923 16.0983C15.7823 15.3954 16.4143 14.533 16.8467 13.568C17.279 12.603 17.5019 11.5574 17.5007 10.4999C17.5017 9.38834 17.2551 8.29048 16.7789 7.28608C16.3026 6.28168 15.6086 5.39597 14.7473 4.69327L15.9307 3.50994C16.946 4.36956 17.7617 5.44034 18.3207 6.6476C18.8797 7.85486 19.1686 9.16953 19.1673 10.4999C19.1673 13.1858 18.0123 15.6016 16.1723 17.2783ZM13.2198 14.3258L12.0348 13.1408C12.4394 12.8297 12.767 12.4297 12.9922 11.9718C13.2175 11.5139 13.3344 11.0103 13.334 10.4999C13.334 9.30827 12.709 8.26244 11.7673 7.67327L12.9665 6.4741C13.5977 6.93843 14.1107 7.54481 14.4641 8.2442C14.8175 8.94359 15.0013 9.71634 15.0007 10.4999C15.0007 12.0349 14.309 13.4083 13.2198 14.3258Z" fill="#363535"/>
</svg>
