<svg width="17" height="16" viewBox="0 0 17 16" fill="none" xmlns="http://www.w3.org/2000/svg">
<path d="M13.5 5.32143C13.9142 5.32143 14.25 4.98564 14.25 4.57143C14.25 4.15722 13.9142 3.82143 13.5 3.82143L13.5 5.32143ZM3.5 4.57143L2.98549 4.02574C2.8352 4.16744 2.75 4.36486 2.75 4.57143C2.75 4.77799 2.8352 4.97541 2.98549 5.11712L3.5 4.57143ZM5.71276 7.68855C6.01414 7.9727 6.48881 7.95874 6.77297 7.65737C7.05712 7.35599 7.04316 6.88132 6.74178 6.59716L5.71276 7.68855ZM6.74178 2.54569C7.04316 2.26154 7.05712 1.78687 6.77297 1.48549C6.48881 1.18411 6.01414 1.17015 5.71276 1.45431L6.74178 2.54569ZM3.5 10.6786C3.08579 10.6786 2.75 11.0144 2.75 11.4286C2.75 11.8428 3.08579 12.1786 3.5 12.1786L3.5 10.6786ZM13.5 11.4286L14.0145 11.9743C14.1648 11.8326 14.25 11.6351 14.25 11.4286C14.25 11.222 14.1648 11.0246 14.0145 10.8829L13.5 11.4286ZM10.2582 13.4543C9.95684 13.7385 9.94288 14.2131 10.227 14.5145C10.5112 14.8159 10.9859 14.8298 11.2872 14.5457L10.2582 13.4543ZM11.2872 8.31145C10.9859 8.0273 10.5112 8.04126 10.227 8.34263C9.94288 8.64401 9.95684 9.11868 10.2582 9.40283L11.2872 8.31145ZM13.5 3.82143L3.5 3.82143L3.5 5.32143L13.5 5.32143L13.5 3.82143ZM2.98549 5.11712L5.71276 7.68855L6.74178 6.59716L4.01451 4.02574L2.98549 5.11712ZM4.01451 5.11712L6.74178 2.54569L5.71276 1.45431L2.98549 4.02574L4.01451 5.11712ZM3.5 12.1786L13.5 12.1786L13.5 10.6786L3.5 10.6786L3.5 12.1786ZM12.9855 10.8829L10.2582 13.4543L11.2872 14.5457L14.0145 11.9743L12.9855 10.8829ZM14.0145 10.8829L11.2872 8.31145L10.2582 9.40283L12.9855 11.9743L14.0145 10.8829Z" fill="#363535"/>
</svg>
