<svg width="20" height="20" viewBox="0 0 20 20" fill="none" xmlns="http://www.w3.org/2000/svg">
<g clip-path="url(#clip0_4158_57722)">
<path d="M10 0C4.47753 0 0 4.47753 0 10C0 15.5225 4.47753 20 10 20C15.5225 20 20 15.5225 20 10C20 4.47753 15.5225 0 10 0ZM4.68217 6.04058C4.72483 5.99791 4.8302 5.99878 4.91031 5.99878H15.0897C15.1698 5.99878 15.2804 6.00226 15.3178 6.04058C15.3553 6.07889 15.3501 6.11198 15.3501 6.15204C15.3501 6.20864 15.3274 6.26263 15.2874 6.30268L10.1506 11.4394C10.1106 11.4794 10.0566 11.5021 10 11.5021C9.9434 11.5021 9.88941 11.4794 9.84936 11.4394L4.71264 6.30268C4.67259 6.26263 4.64995 6.20864 4.64995 6.15204C4.64995 6.11198 4.63863 6.08325 4.68217 6.04058V6.04058ZM15.0897 14.0012H4.91031C4.54807 14.0012 4.25462 13.7078 4.25462 13.3455L4.25897 6.69018C4.25897 6.65012 4.30773 6.63009 4.33647 6.65796L9.47579 11.813C9.62034 11.9575 9.81017 12.0298 10 12.0298C10.1898 12.0298 10.3797 11.9575 10.5242 11.813L15.6635 6.65796C15.6923 6.62922 15.741 6.64925 15.741 6.69018L15.7454 13.3455C15.7454 13.7078 15.4519 14.0012 15.0897 14.0012V14.0012Z" fill="#4B4C4F"/>
</g>
<defs>
<clipPath id="clip0_4158_57722">
<rect width="20" height="20" fill="white"/>
</clipPath>
</defs>
</svg>
