<svg width="20" height="20" viewBox="0 0 20 20" fill="none" xmlns="http://www.w3.org/2000/svg">
<g clip-path="url(#clip0_4158_57728)">
<path d="M12.1958 3.92329C12.1498 3.67318 11.9041 3.50818 11.6478 3.55334L6.34546 4.49731C6.08914 4.54334 5.91855 4.78216 5.96451 5.03226L7.66154 14.2323C7.7075 14.4824 7.95322 14.6474 8.20954 14.6023L13.5119 13.6583C13.7682 13.6123 13.9388 13.3735 13.8928 13.1234L12.1958 3.92329ZM11.5983 4.51989C11.4277 4.55029 11.2642 4.44 11.2333 4.27326C11.2023 4.10652 11.3163 3.94673 11.4869 3.91634C11.6575 3.88595 11.821 3.99623 11.852 4.16297C11.8829 4.32971 11.7689 4.4895 11.5983 4.51989Z" fill="#4B4C4F"/>
<path d="M11.0269 14.7635C10.68 14.83 10.4457 15.1651 10.5054 15.5108C10.565 15.8565 10.895 16.0835 11.2419 16.017C11.5887 15.9505 11.823 15.6154 11.7634 15.2697C11.7038 14.924 11.3737 14.697 11.0269 14.7635V14.7635Z" fill="#4B4C4F"/>
<path d="M10 0C4.47753 0 0 4.47753 0 10C0 15.5225 4.47753 20 10 20C15.5225 20 20 15.5225 20 10C20 4.47753 15.5225 0 10 0ZM14.5158 15.8586L8.03553 17.0333C7.70637 17.0925 7.39464 16.8896 7.33804 16.5796L5.17416 4.6395C5.11755 4.3295 5.33873 4.02908 5.66789 3.96987L12.1482 2.79519C12.4774 2.73598 12.7891 2.93887 12.8457 3.24887L15.0096 15.189C15.0662 15.499 14.845 15.7994 14.5158 15.8586Z" fill="#4B4C4F"/>
</g>
<defs>
<clipPath id="clip0_4158_57728">
<rect width="20" height="20" fill="white"/>
</clipPath>
</defs>
</svg>
