<svg width="20" height="21" viewBox="0 0 20 21" fill="none" xmlns="http://www.w3.org/2000/svg">
<path d="M16.335 16.839H13.67V12.662C13.67 11.666 13.65 10.384 12.28 10.384C10.891 10.384 10.679 11.468 10.679 12.589V16.839H8.013V8.25H10.573V9.42H10.608C10.966 8.746 11.836 8.033 13.136 8.033C15.836 8.033 16.336 9.811 16.336 12.124V16.839H16.335ZM5.003 7.075C4.79956 7.07526 4.59806 7.03537 4.41006 6.95761C4.22207 6.87984 4.05127 6.76574 3.90746 6.62184C3.76365 6.47793 3.64965 6.30706 3.57201 6.11901C3.49437 5.93097 3.4546 5.72944 3.455 5.526C3.4552 5.21983 3.54618 4.9206 3.71644 4.66615C3.8867 4.41169 4.12859 4.21343 4.41153 4.09645C4.69447 3.97947 5.00574 3.94902 5.30598 4.00894C5.60622 4.06886 5.88196 4.21648 6.09831 4.43311C6.31466 4.64974 6.46191 4.92566 6.52145 5.22598C6.58099 5.5263 6.55013 5.83753 6.43278 6.12032C6.31543 6.4031 6.11687 6.64474 5.86219 6.81467C5.60751 6.9846 5.30817 7.0752 5.002 7.075H5.003ZM6.339 16.839H3.666V8.25H6.34V16.839H6.339ZM17.67 1.5H2.329C1.593 1.5 1 2.08 1 2.797V18.203C1 18.92 1.594 19.5 2.328 19.5H17.666C18.4 19.5 19 18.92 19 18.203V2.797C19 2.08 18.4 1.5 17.666 1.5H17.669H17.67Z" fill="#363535"/>
</svg>
