<svg width="20" height="20" viewBox="0 0 20 20" fill="none" xmlns="http://www.w3.org/2000/svg">
<g clip-path="url(#clip0_4158_57725)">
<path d="M10 0C4.47753 0 0 4.47753 0 10C0 15.5225 4.47753 20 10 20C15.5225 20 20 15.5225 20 10C20 4.47753 15.5225 0 10 0ZM15.2987 15.1942C15.2987 15.3683 15.1672 15.5129 14.9948 15.5312C13.922 15.6444 10.2186 15.7541 7.27099 12.4016C4.35214 9.0822 4.77099 6.16858 4.98433 5.30826C5.02177 5.15674 5.15761 5.05138 5.31348 5.05138H7.60711C7.76123 5.05138 7.8962 5.155 7.93452 5.30477L8.61024 7.89011C8.64333 8.01811 8.59979 8.15308 8.49791 8.23755L7.5061 9.05434C7.38767 9.15186 7.34936 9.31557 7.41292 9.45489C7.61755 9.90509 8.12609 10.8925 8.90369 11.5665C9.6543 12.2161 10.5408 12.7612 10.9727 13.012C11.1207 13.0982 11.3105 13.059 11.4133 12.9223L12.1108 11.9932C12.1952 11.8809 12.3406 11.8321 12.4756 11.8713L15.054 12.6123C15.1994 12.6541 15.2995 12.7865 15.2995 12.938V15.1959L15.2987 15.1942Z" fill="#4B4C4F"/>
</g>
<defs>
<clipPath id="clip0_4158_57725">
<rect width="20" height="20" fill="white"/>
</clipPath>
</defs>
</svg>
