<svg width="20" height="20" viewBox="0 0 20 20" fill="none" xmlns="http://www.w3.org/2000/svg">
<g clip-path="url(#clip0_4158_57719)">
<path d="M4.8125 14.2044C5.59185 15.1649 6.63242 15.905 7.82452 16.316C7.31424 15.6978 6.88756 14.8575 6.57931 13.8613C5.80954 13.9745 5.20783 14.1051 4.8125 14.2035V14.2044Z" fill="#4B4C4F"/>
<path d="M7.16293 12.9852C7.86129 12.9051 8.66066 12.8459 9.5445 12.8319V10.3955H6.83203C6.85728 11.3072 6.97049 12.1841 7.16293 12.9852V12.9852Z" fill="#4B4C4F"/>
<path d="M6.83203 9.60357H9.5445V7.28469C8.63889 7.26815 7.83517 7.20545 7.13767 7.12012C6.96091 7.8925 6.85641 8.73193 6.83203 9.60357V9.60357Z" fill="#4B4C4F"/>
<path d="M7.82553 3.68359C6.60906 4.10331 5.55019 4.86611 4.76562 5.85531C5.15312 5.96503 5.7557 6.11132 6.54985 6.23758C6.86071 5.19787 7.29871 4.32274 7.82553 3.68446V3.68359Z" fill="#4B4C4F"/>
<path d="M6.04015 10.3955H3.33203C3.39908 11.5345 3.75262 12.5977 4.32123 13.5138C4.69131 13.411 5.39664 13.2369 6.37191 13.0897C6.18121 12.2651 6.0654 11.3568 6.04015 10.3955Z" fill="#4B4C4F"/>
<path d="M6.34927 7.00939C5.3592 6.84916 4.66258 6.65759 4.28727 6.54004C3.73781 7.44391 3.39734 8.4871 3.33203 9.6043H6.04015C6.06453 8.68128 6.1725 7.80789 6.35014 7.00939H6.34927Z" fill="#4B4C4F"/>
<path d="M7.81276 14.8274C8.29605 15.8027 8.91081 16.4323 9.54387 16.6204V13.624C8.74885 13.6371 8.02262 13.6893 7.38086 13.7599C7.50538 14.1404 7.64993 14.4983 7.81276 14.8283V14.8274Z" fill="#4B4C4F"/>
<path d="M12.0078 3.62793C12.5599 4.27579 13.017 5.17965 13.3375 6.25942C14.1935 6.12967 14.8335 5.97293 15.2375 5.85712C14.4164 4.82176 13.2957 4.03458 12.0078 3.62793V3.62793Z" fill="#4B4C4F"/>
<path d="M15.7138 6.54102C15.3246 6.66467 14.5888 6.86756 13.5352 7.03126C13.7102 7.82367 13.8155 8.68922 13.8399 9.60354H16.6682C16.6029 8.4872 16.2624 7.44401 15.7138 6.54102V6.54102Z" fill="#4B4C4F"/>
<path d="M10 0C4.47753 0 0 4.47753 0 10C0 15.5225 4.47753 20 10 20C15.5225 20 20 15.5225 20 10C20 4.47753 15.5225 0 10 0ZM16.3262 16.7511L15.6226 17.3267C15.5947 17.3494 15.5538 17.3459 15.5303 17.3171L14.1789 15.6095L13.2628 16.6475C13.2262 16.6762 13.1714 16.6588 13.1592 16.6135L11.8913 11.9967C11.8757 11.941 11.9349 11.8939 11.9862 11.9218L16.1799 14.2302C16.2208 14.2529 16.2252 14.3095 16.1886 14.3391L14.9103 15.0505L16.3349 16.658C16.3575 16.6858 16.3541 16.7268 16.3253 16.7503L16.3262 16.7511ZM16.5117 13.6607L15.8177 13.2785C16.3044 12.4173 16.6066 11.4385 16.6684 10.3953H13.8401C13.8245 10.9892 13.7739 11.5622 13.693 12.1082L12.9485 11.6989C13.0016 11.2757 13.0347 10.8394 13.0477 10.3953H10.3352V12.8318C10.7262 12.8379 11.1007 12.8535 11.4603 12.8744L11.6823 13.6834C11.2574 13.6529 10.8072 13.6311 10.3352 13.6233V16.6196C10.9483 16.4377 11.5448 15.8403 12.0211 14.9164L12.311 15.9735C12.2135 16.1146 12.1116 16.2478 12.0063 16.3715C12.1343 16.3314 12.2597 16.2861 12.3833 16.2382L12.594 17.0063C11.7851 17.3067 10.9108 17.4713 9.99913 17.4713C9.98607 17.4713 9.97301 17.4713 9.95994 17.4713C9.95298 17.4713 9.94601 17.4713 9.93905 17.4713C9.91554 17.4713 9.89115 17.4704 9.86764 17.4695C5.80808 17.399 2.52787 14.0752 2.52787 9.99913C2.52787 5.92302 5.80895 2.60014 9.86851 2.52961C9.89202 2.52961 9.91641 2.52787 9.93992 2.52787C9.94688 2.52787 9.95385 2.52787 9.96082 2.52787C9.97388 2.52787 9.98694 2.52787 10 2.52787C14.1196 2.52787 17.4721 5.87948 17.4721 10C17.4721 11.3288 17.123 12.5784 16.5117 13.6607V13.6607Z" fill="#4B4C4F"/>
<path d="M7.81244 5.17281C7.63393 5.53244 7.47806 5.92603 7.3457 6.34662C7.98834 6.42238 8.72327 6.47811 9.54354 6.49378V3.37988C8.91049 3.56797 8.29572 4.19841 7.81244 5.17281V5.17281Z" fill="#4B4C4F"/>
<path d="M12.067 5.17281C11.5838 4.19754 10.969 3.56797 10.3359 3.37988V6.49639C11.158 6.48594 11.8938 6.43544 12.539 6.36403C12.4058 5.93648 12.2482 5.5368 12.067 5.17281V5.17281Z" fill="#4B4C4F"/>
<path d="M10.3359 7.28747V9.60373H13.0484C13.024 8.73905 12.9213 7.90572 12.7471 7.1377C12.047 7.21868 11.2424 7.27615 10.3368 7.28747H10.3359Z" fill="#4B4C4F"/>
</g>
<defs>
<clipPath id="clip0_4158_57719">
<rect width="20" height="20" fill="white"/>
</clipPath>
</defs>
</svg>
