<svg width="47" height="47" viewBox="0 0 47 47" fill="none" xmlns="http://www.w3.org/2000/svg">
<circle opacity="0.09" cx="23.5" cy="23.5" r="23.5" fill="url(#paint0_linear_2601_32994)"/>
<path d="M32 33H16V31C16 29.6739 16.5268 28.4021 17.4645 27.4645C18.4021 26.5268 19.6739 26 21 26H27C28.3261 26 29.5979 26.5268 30.5355 27.4645C31.4732 28.4021 32 29.6739 32 31V33ZM24 24C23.2121 24 22.4319 23.8448 21.7039 23.5433C20.9759 23.2417 20.3145 22.7998 19.7574 22.2426C19.2002 21.6855 18.7583 21.0241 18.4567 20.2961C18.1552 19.5681 18 18.7879 18 18C18 17.2121 18.1552 16.4319 18.4567 15.7039C18.7583 14.9759 19.2002 14.3145 19.7574 13.7574C20.3145 13.2002 20.9759 12.7583 21.7039 12.4567C22.4319 12.1552 23.2121 12 24 12C25.5913 12 27.1174 12.6321 28.2426 13.7574C29.3679 14.8826 30 16.4087 30 18C30 19.5913 29.3679 21.1174 28.2426 22.2426C27.1174 23.3679 25.5913 24 24 24Z" fill="url(#paint1_linear_2601_32994)"/>
<defs>
<linearGradient id="paint0_linear_2601_32994" x1="4.59608e-07" y1="44.0625" x2="52.875" y2="1.31316e-07" gradientUnits="userSpaceOnUse">
<stop stop-color="#36A9E0"/>
<stop offset="1" stop-color="#0367B2"/>
</linearGradient>
<linearGradient id="paint1_linear_2601_32994" x1="16" y1="31.6875" x2="37.7372" y2="17.8861" gradientUnits="userSpaceOnUse">
<stop stop-color="#36A9E0"/>
<stop offset="1" stop-color="#0367B2"/>
</linearGradient>
</defs>
</svg>
