<svg width="47" height="47" viewBox="0 0 47 47" fill="none" xmlns="http://www.w3.org/2000/svg">
<circle opacity="0.09" cx="23.5" cy="23.5" r="23.5" fill="#F39325"/>
<path d="M25.341 15C24.9626 16.0683 24.8945 17.2219 25.1446 18.3273C25.3946 19.4326 25.9527 20.4446 26.754 21.246C27.5554 22.0473 28.5674 22.6054 29.6727 22.8554C30.7781 23.1055 31.9317 23.0374 33 22.659V32C33 32.2652 32.8946 32.5196 32.7071 32.7071C32.5196 32.8946 32.2652 33 32 33H16C15.7348 33 15.4804 32.8946 15.2929 32.7071C15.1054 32.5196 15 32.2652 15 32V16C15 15.7348 15.1054 15.4804 15.2929 15.2929C15.4804 15.1054 15.7348 15 16 15H25.341ZM31 21C29.9391 21 28.9217 20.5786 28.1716 19.8284C27.4214 19.0783 27 18.0609 27 17C27 15.9391 27.4214 14.9217 28.1716 14.1716C28.9217 13.4214 29.9391 13 31 13C32.0609 13 33.0783 13.4214 33.8284 14.1716C34.5786 14.9217 35 15.9391 35 17C35 18.0609 34.5786 19.0783 33.8284 19.8284C33.0783 20.5786 32.0609 21 31 21Z" fill="#F39325"/>
</svg>
