<svg width="39" height="39" viewBox="0 0 39 39" fill="none" xmlns="http://www.w3.org/2000/svg">
<path d="M24.0797 11.2377H9.12787C7.16848 11.2377 5.58008 12.7906 5.58008 14.7063V23.2769C5.58008 25.1926 7.16848 26.7455 9.12787 26.7455H24.0797C26.0391 26.7455 27.6275 25.1926 27.6275 23.2769V14.7063C27.6275 12.7906 26.0391 11.2377 24.0797 11.2377Z" fill="#E6E8EC"/>
<path d="M33.2543 24.4572L27.627 22.0802V16.3833L33.2543 14.0049C33.5725 13.8685 33.8991 14.1851 33.8991 14.6272V23.8377C33.8991 24.2785 33.5725 24.5923 33.2543 24.4572Z" fill="#E6E8EC"/>
<path d="M15.6615 14.1631H8.83388C8.59879 14.1631 8.4082 14.3494 8.4082 14.5793V14.7348C8.4082 14.9647 8.59879 15.151 8.83388 15.151H15.6615C15.8966 15.151 16.0872 14.9647 16.0872 14.7348V14.5793C16.0872 14.3494 15.8966 14.1631 15.6615 14.1631Z" fill="#A6A6A6"/>
</svg>
