<svg width="51" height="50" viewBox="0 0 51 50" fill="none" xmlns="http://www.w3.org/2000/svg">
<path d="M34.2502 32.4489L29.0962 32.4489L25.6655 37.1317L22.5407 32.4489L16.8657 32.4489C14.5882 32.4489 12.7422 30.7874 12.7422 28.7346L12.7422 19.5717C12.7422 17.5231 14.5882 15.8574 16.8657 15.8574L34.2502 15.8574C36.5278 15.8574 38.3737 17.5174 38.3737 19.5717L38.3737 28.7389C38.3737 30.7874 36.5278 32.4489 34.2502 32.4489Z" fill="#E6E8EC"/>
<path d="M30.5835 25.4209L21.1847 25.4209C21.0277 25.4209 20.9004 25.5469 20.9004 25.7023L20.9004 25.8009C20.9004 25.9563 21.0277 26.0823 21.1847 26.0823L30.5835 26.0823C30.7405 26.0823 30.8678 25.9563 30.8678 25.8009L30.8678 25.7023C30.8678 25.5469 30.7405 25.4209 30.5835 25.4209Z" fill="black"/>
<path d="M33.6509 22.7861L18.1152 22.7861C17.9502 22.7861 17.8164 22.9185 17.8164 23.0818L17.8164 23.1518C17.8164 23.3152 17.9502 23.4476 18.1152 23.4476L33.6509 23.4476C33.8159 23.4476 33.9496 23.3152 33.9496 23.1518L33.9496 23.0818C33.9496 22.9185 33.8159 22.7861 33.6509 22.7861Z" fill="black"/>
</svg>
