<svg width="15" height="14" viewBox="0 0 15 14" fill="none" xmlns="http://www.w3.org/2000/svg">
<path d="M10.5 0.499999C10.5 0.223857 10.7239 0 11 0H14.5C14.7761 0 15 0.223858 15 0.5V4.16667C15 4.44281 14.7761 4.66667 14.5 4.66667H14C13.7239 4.66667 13.5 4.44281 13.5 4.16667V2.05555C13.5 1.77941 13.2761 1.55556 13 1.55556H11C10.7239 1.55556 10.5 1.3317 10.5 1.05556V0.499999ZM0 0.499999C0 0.223857 0.223858 0 0.5 0H4C4.27614 0 4.5 0.223858 4.5 0.5V1.05556C4.5 1.3317 4.27614 1.55556 4 1.55556H2C1.72386 1.55556 1.5 1.77941 1.5 2.05556V4.16667C1.5 4.44281 1.27614 4.66667 1 4.66667H0.5C0.223858 4.66667 0 4.44281 0 4.16667V0.499999ZM13 12.4444C13.2761 12.4444 13.5 12.2206 13.5 11.9444V9.83333C13.5 9.55719 13.7239 9.33333 14 9.33333H14.5C14.7761 9.33333 15 9.55719 15 9.83333V13.5C15 13.7761 14.7761 14 14.5 14H11C10.7239 14 10.5 13.7761 10.5 13.5V12.9444C10.5 12.6683 10.7239 12.4444 11 12.4444H13ZM1.5 11.9444C1.5 12.2206 1.72386 12.4444 2 12.4444H4C4.27614 12.4444 4.5 12.6683 4.5 12.9444V13.5C4.5 13.7761 4.27614 14 4 14H0.5C0.223858 14 0 13.7761 0 13.5V9.83333C0 9.55719 0.223858 9.33333 0.5 9.33333H1C1.27614 9.33333 1.5 9.55719 1.5 9.83333V11.9444Z" fill="#E6E8EC"/>
</svg>
