<svg width="50" height="50" viewBox="0 0 50 50" fill="none" xmlns="http://www.w3.org/2000/svg">
<path d="M26.4375 19.9688C26.4375 21.6844 25.756 23.3297 24.5429 24.5429C23.3297 25.756 21.6844 26.4375 19.9688 26.4375C18.2531 26.4375 16.6078 25.756 15.3947 24.5429C14.1815 23.3297 13.5 21.6844 13.5 19.9688C13.5 18.2531 14.1815 16.6078 15.3947 15.3947C16.6078 14.1815 18.2531 13.5 19.9688 13.5C21.6844 13.5 23.3297 14.1815 24.5429 15.3947C25.756 16.6078 26.4375 18.2531 26.4375 19.9688ZM20.6875 17.0938C20.6875 16.9031 20.6118 16.7203 20.477 16.5855C20.3422 16.4507 20.1594 16.375 19.9688 16.375C19.7781 16.375 19.5953 16.4507 19.4605 16.5855C19.3257 16.7203 19.25 16.9031 19.25 17.0938L19.25 19.25L17.0938 19.25C16.9031 19.25 16.7203 19.3257 16.5855 19.4605C16.4507 19.5953 16.375 19.7781 16.375 19.9688C16.375 20.1594 16.4507 20.3422 16.5855 20.477C16.7203 20.6118 16.9031 20.6875 17.0938 20.6875L19.25 20.6875L19.25 22.8438C19.25 23.0344 19.3257 23.2172 19.4605 23.352C19.5953 23.4868 19.7781 23.5625 19.9688 23.5625C20.1594 23.5625 20.3422 23.4868 20.477 23.352C20.6118 23.2172 20.6875 23.0344 20.6875 22.8438L20.6875 20.6875L22.8438 20.6875C23.0344 20.6875 23.2172 20.6118 23.352 20.477C23.4868 20.3422 23.5625 20.1594 23.5625 19.9688C23.5625 19.7781 23.4868 19.5953 23.352 19.4605C23.2172 19.3257 23.0344 19.25 22.8438 19.25L20.6875 19.25L20.6875 17.0938Z" fill="#E6E8EC"/>
<path d="M19.9688 27.875C21.3221 27.8753 22.6528 27.5281 23.8335 26.8669C25.0142 26.2056 26.0055 25.2523 26.7123 24.0983C27.4192 22.9443 27.8179 21.6281 27.8705 20.2758C27.9231 18.9235 27.6276 17.5804 27.0125 16.375L32.1875 16.375C33.2875 16.3749 34.3459 16.7952 35.1463 17.5498C35.9466 18.3045 36.4283 19.3364 36.4928 20.4345L36.5 20.6875L36.5 26.4375L30.75 26.4375L30.497 26.4447C29.4425 26.5066 28.4473 26.9534 27.7004 27.7004C26.9534 28.4473 26.5066 29.4425 26.4447 30.497L26.4375 30.75L26.4375 36.5L20.6875 36.5C19.5875 36.5001 18.5291 36.0798 17.7287 35.3252C16.9284 34.5705 16.4467 33.5386 16.3822 32.4405L16.375 32.1875L16.375 27.0125C17.4531 27.5645 18.675 27.875 19.9688 27.875Z" fill="#E6E8EC"/>
<path d="M36.3563 27.8784C36.2448 28.2202 36.0703 28.5382 35.8416 28.8156L35.6576 29.0169L29.0149 35.6596C28.6929 35.9816 28.3019 36.2202 27.8764 36.3596L27.875 30.752L27.8822 30.5363C27.9336 29.8518 28.2283 29.2083 28.7129 28.7222C29.1974 28.236 29.84 27.9392 30.5243 27.8856L30.75 27.877L36.3563 27.8784Z" fill="#E6E8EC"/>
</svg>
