<svg width="51" height="50" viewBox="0 0 51 50" fill="none" xmlns="http://www.w3.org/2000/svg">
<g fill="#E6E8EC">
<path d="M34.4758 32.1571L29.2068 32.1571L25.6999 37L22.5087 32.1571L16.7147 32.1571C14.3861 32.1571 12.5 30.4389 12.5 28.3158L12.5 18.8412C12.5 16.7227 14.3861 15 16.7147 15L34.4758 15C36.8029 15 38.6905 16.7167 38.6905 18.8412L38.6905 28.3217C38.6905 30.4389 36.8029 32.1571 34.4758 32.1571Z
         M 24.379,27.1849 C 24.1627,27.7254 24.1627,28.3286 24.379,28.8692 C 24.7088,29.0248 25.0688,29.1055 25.4334,29.1055 C 25.7979,29.1055 26.158,29.0248 26.4878,28.8692 C 26.704,28.3286 26.704,27.7254 26.4878,27.1849 C 26.158,27.0293 25.7979,26.9486 25.4334,26.9486 C 25.0688,26.9486 24.7088,27.0293 24.379,27.1849 M 23.1992,19.4286 C 23.2185,19.7342 23.3062,20.0316 23.4558,20.2987 C 23.5825,20.5648 23.7633,20.8013 23.9867,20.9931 C 24.6356,20.6474 25.1812,20.4751 25.6236,20.476 C 26.066,20.477 26.3904,20.5681 26.5969,20.7494 C 26.7003,20.8431 26.7818,20.9586 26.8353,21.0876 C 26.8889,21.2166 26.9132,21.3559 26.9066,21.4954 C 26.9066,22.0766 26.4199,22.5887 25.4466,23.0319 L 24.6503,23.4013 L 24.4733,23.6229 L 24.5913,25.8242 C 24.8608,25.9085 25.1422,25.9484 25.4245,25.9424 C 25.702,25.9492 25.9787,25.9092 26.243,25.8242 L 26.3904,24.6423 L 27.29,24.1695 C 28.5681,23.4899 29.2071,22.5149 29.2071,21.2443 C 29.2022,20.4465 28.9367,19.8038 28.4108,19.3163 C 27.8848,18.8287 27.118,18.585 26.1103,18.585 C 25.0808,18.5919 24.0734,18.8839 23.1992,19.4286"/>
</g>
</svg>
