<svg width="50" height="50" viewBox="0 0 50 50" fill="none" xmlns="http://www.w3.org/2000/svg">
<g clip-path="url(#clip0_3134_48609)">
<rect width="50" height="50" rx="25" fill="none"/>
<circle cx="25" cy="25" r="25" fill="none"/>
<g clip-path="url(#clip1_3134_48609)">
<path d="M34.1294 16.055L23.7207 16.055L22.7164 12.4941L15.8685 12.4941C14.6131 12.4941 13.5859 13.5624 13.5859 14.8681L13.5859 30.2985C13.5859 31.6041 14.6131 32.6724 15.8685 32.6724L23.8577 32.6724L24.999 36.2333L34.1294 36.2333C35.3848 36.2333 36.412 35.165 36.412 33.8594L36.412 18.4289C36.412 17.1233 35.3848 16.055 34.1294 16.055ZM19.4865 27.4379C16.9185 27.4379 14.8185 25.2658 14.8185 22.5833C14.8185 19.9007 16.9071 17.7286 19.4865 17.7286C20.6734 17.7286 21.7577 18.1678 22.6137 18.9987L22.6935 19.0699L21.2897 20.4705L21.2213 20.4111C20.8903 20.0907 20.331 19.7108 19.4865 19.7108C17.9914 19.7108 16.7702 21.0046 16.7702 22.5833C16.7702 24.1619 17.9914 25.4557 19.4865 25.4557C21.0501 25.4557 21.7234 24.4231 21.906 23.7227L19.3838 23.7227L19.3838 21.883L23.8919 21.883L23.9033 21.9661C23.949 22.2153 23.9604 22.4408 23.9604 22.6901C23.9604 25.4794 22.1229 27.4379 19.4865 27.4379ZM26.3685 25.4082C26.7452 26.1204 27.2131 26.8088 27.7267 27.4261L27.1104 28.0551L26.3685 25.4082ZM27.2473 24.5061L26.1175 24.5061L25.7637 23.2717L30.3175 23.2717C30.3175 23.2717 29.9294 24.8266 28.537 26.524C27.9435 25.7881 27.5213 25.064 27.2473 24.5061ZM35.2707 33.8594C35.2707 34.5122 34.7571 35.0463 34.1294 35.0463L26.1403 35.0463L28.4229 32.6724L27.4984 29.3845L28.5484 28.2925L31.6071 31.4854L32.4403 30.619L29.3473 27.4379C30.3745 26.2154 31.1734 24.7673 31.5387 23.2717L32.9881 23.2717L32.9881 22.0373L28.8338 22.0373L28.8338 20.8028L27.6468 20.8028L27.6468 22.0373L25.4098 22.0373L24.0631 17.242L34.1294 17.242C34.7571 17.242 35.2707 17.7761 35.2707 18.4289L35.2707 33.8594Z" fill="#E6E8EC"/>
</g>
</g>
<defs>
<clipPath id="clip0_3134_48609">
<rect width="50" height="50" rx="25" fill="white"/>
</clipPath>
<clipPath id="clip1_3134_48609">
<rect width="23.7391" height="26" fill="white" transform="translate(12.5 11.3633)"/>
</clipPath>
</defs>
</svg>
