<svg xmlns="http://www.w3.org/2000/svg" viewBox="0 0 500 200"><defs><style>.cls-1{fill:#005d63;}.cls-2{fill:#fff;}.cls-3{fill:#ffcc49;}</style></defs><g id="Layer_9" data-name="Layer 9"><path class="cls-1" d="M225,113.79V74.88h7.52v38.91Zm5.53,0v-6.7H250.3v6.7Zm36.58.55a15.44,15.44,0,0,1-7.47-1.77,14.12,14.12,0,0,1-5.2-5,14.7,14.7,0,0,1-.06-14.28,14.26,14.26,0,0,1,12.24-6.87,12.89,12.89,0,0,1,6.8,1.78A11.9,11.9,0,0,1,278,93a13.35,13.35,0,0,1,1.72,6.8,17,17,0,0,1-.39,3.16l-22.47,0V97.57l19.1-.06L273,99.78a10.31,10.31,0,0,0-.88-4A5.2,5.2,0,0,0,270,93.36a6.25,6.25,0,0,0-3.43-.88,7,7,0,0,0-3.77,1,6.38,6.38,0,0,0-2.49,2.72,9.35,9.35,0,0,0-.83,4.09,9.62,9.62,0,0,0,.89,4.26,6.8,6.8,0,0,0,2.65,2.77,8.17,8.17,0,0,0,4,.94,10,10,0,0,0,3.71-.66,8.14,8.14,0,0,0,2.88-2.11l4.26,4.27a12.42,12.42,0,0,1-4.76,3.43A15.55,15.55,0,0,1,267.06,114.34Zm17.16-.55V87.05h7.25v26.74ZM291.47,99l-2.82-1.88a13.86,13.86,0,0,1,2.88-7.75,8.39,8.39,0,0,1,6.86-2.88,8.79,8.79,0,0,1,3.49.66,7.45,7.45,0,0,1,2.82,2l-4.54,5.2a3.75,3.75,0,0,0-1.49-1,5.22,5.22,0,0,0-1.94-.33,5.16,5.16,0,0,0-3.82,1.49A6,6,0,0,0,291.47,99Zm33.71,14.78V98.46a5.11,5.11,0,0,0-5.36-5.37,5.7,5.7,0,0,0-2.77.66,5,5,0,0,0-1.94,1.88,5.86,5.86,0,0,0-.66,2.83L311.62,97A10.9,10.9,0,0,1,313,91.54a9.74,9.74,0,0,1,3.77-3.71,11.2,11.2,0,0,1,5.48-1.33A9.55,9.55,0,0,1,327.45,88a10.47,10.47,0,0,1,3.66,3.82,10,10,0,0,1,1.33,5v16.94Zm-18,0V87.05h7.25v26.74Zm31.08-10.85V96.35h19.15v6.59Zm26.34,10.85V74.88h7.52v38.91Zm5.53-15.94v-6.7h19.6v6.7Zm0-16.33V74.88h20.54v6.64Zm36,32.82a12.2,12.2,0,0,1-6.59-1.83,12.54,12.54,0,0,1-4.59-5,16.06,16.06,0,0,1,0-14.22,12.54,12.54,0,0,1,4.59-5,12.2,12.2,0,0,1,6.59-1.83,11.15,11.15,0,0,1,5.14,1.16,9,9,0,0,1,3.6,3.27,8.86,8.86,0,0,1,1.5,4.65v9.63a8.94,8.94,0,0,1-1.5,4.7,9.49,9.49,0,0,1-3.6,3.27A11.15,11.15,0,0,1,406.16,114.34Zm1.33-6.7a6.44,6.44,0,0,0,4.92-2,7.44,7.44,0,0,0,1.88-5.26,7.57,7.57,0,0,0-.88-3.71A6,6,0,0,0,411,94.14a6.5,6.5,0,0,0-3.54-.94,6.7,6.7,0,0,0-3.55.94,6.42,6.42,0,0,0-2.38,2.54,8,8,0,0,0-.83,3.71,8.49,8.49,0,0,0,.83,3.82,7,7,0,0,0,2.38,2.55A7.06,7.06,0,0,0,407.49,107.64Zm6.42,6.15v-7.2l1.16-6.53-1.16-6.42V87.05h7.19v26.74Zm13.61,0V87.05h7.3v26.74Zm3.65-31.05a4,4,0,0,1-2.93-1.17,4.13,4.13,0,0,1-1.17-3,4.08,4.08,0,0,1,1.17-2.93,3.88,3.88,0,0,1,2.93-1.22,3.76,3.76,0,0,1,2.93,1.22,4.08,4.08,0,0,1,1.17,2.93,4.13,4.13,0,0,1-1.17,3A3.83,3.83,0,0,1,431.17,82.74Zm10.08,31.05V87.05h7.25v26.74ZM448.5,99l-2.83-1.88a14,14,0,0,1,2.88-7.75,8.41,8.41,0,0,1,6.87-2.88,8.78,8.78,0,0,1,3.48.66,7.4,7.4,0,0,1,2.83,2l-4.54,5.2a3.86,3.86,0,0,0-1.5-1,5.2,5.2,0,0,0-1.93-.33,5.15,5.15,0,0,0-3.82,1.49A6,6,0,0,0,448.5,99Z"/><path class="cls-2" d="M190.52,95.34l-2.77-9.23-11.53,4.15-4.15,6,.92,4.61,3.69,4.61,6,1.39,6.46-3.23Z"/><path class="cls-2" d="M154.71,109.29l-3.19-11.86L162.36,94l7.81,3.32,2,4.28-.27,5.9-4,4.64-7.12,1.19Z"/><path class="cls-3" d="M66.24,98.6h7.35V91.25H66.24Z"/><path class="cls-3" d="M69.16,125.35H61.07v8.09h8.09Z"/><path class="cls-3" d="M107.12,136H93.65V122.53h13.47Z"/><path class="cls-3" d="M82.54,145.74H90.6v-8.07H82.54Z"/><path class="cls-1" d="M57.2,80.37h7.73V72.64H57.2Z"/><path class="cls-1" d="M53,95.65h8.07V87.58H53Z"/><path class="cls-1" d="M56,116.56H68.08V104.5H56Z"/><path class="cls-1" d="M41.73,127.08H53v11.28H41.73Z"/><path class="cls-1" d="M84.9,108.56H75.26v9.64H84.9Z"/><path class="cls-1" d="M61.07,140.2H72v10.94H61.07Z"/><path class="cls-1" d="M84.5,126.36H77.42v7.08H84.5Z"/><path class="cls-1" d="M192.22,106.76v0l0,0a19.56,19.56,0,0,1-9,12.05c-7.63,4.62-17.3,3.91-20.3,2.72a15.94,15.94,0,0,1-6.54-4.84s0,0,0,0a23.49,23.49,0,0,1-3.22-5.71c-.17-.46-.32-.93-.46-1.39a11.36,11.36,0,0,0,9.84,5.78,11.38,11.38,0,0,0,3.64-.6l.22-.09a11.3,11.3,0,0,0,4.61-2.93l3.22,2.69,3.6,3,1-4.57.9-4a9.05,9.05,0,0,0,1.73.15,11.4,11.4,0,0,0,3.62-.6,11.14,11.14,0,0,0,7.56-9.36,20.27,20.27,0,0,1-.26,7.11C192.31,106.38,192.26,106.56,192.22,106.76ZM152,98.35,160,95.68a8.44,8.44,0,0,1,6.67.55,8.24,8.24,0,0,1,3.7,3.9,10.24,10.24,0,0,1,.56,1.46,8.68,8.68,0,0,1,.33,2.65,8.37,8.37,0,0,1-.84,3.36,8,8,0,0,1-1.64,2.33A8.3,8.3,0,0,1,165.4,112l-.2.07a8.5,8.5,0,0,1-10.88-5.72Zm3.42-7.09a7.49,7.49,0,0,1,3.18-1.81,13.06,13.06,0,0,1,10.48,1.75s0,0,0,0A11.8,11.8,0,0,1,177,84.29a13.13,13.13,0,0,1,2.14-.4,9.59,9.59,0,0,1,5.5,1.07l-6.72,2.26a11.09,11.09,0,0,0-7.39,8.3A11.46,11.46,0,0,0,159,93l-6,2A10.6,10.6,0,0,1,155.45,91.26ZM177,108.08l-1,4.19-3.36-2.8a11.36,11.36,0,0,0,1.22-3.42,10.71,10.71,0,0,0,2.38,1.7A5.28,5.28,0,0,0,177,108.08Zm-2.5-5.67a8.21,8.21,0,0,1-1-2.28,7,7,0,0,1-.24-1.19,8.26,8.26,0,0,1,5.58-9l8.28-2.78,2.4,8.36a8.33,8.33,0,0,1-5.38,10.22,8.4,8.4,0,0,1-6.49-.51,0,0,0,0,0,0,0A8.52,8.52,0,0,1,174.47,102.41ZM191.18,89a16.79,16.79,0,0,0-1-1.45,19.89,19.89,0,0,0-3.14-3.45,16.39,16.39,0,0,0-1.87-1.45c-7.13-6.65-18-9.63-18-9.63,1.41,5.23-1.81,7.49-1.81,7.49a25.43,25.43,0,0,0-10.15-6.94,14.6,14.6,0,0,1-.07,7c-19.53-17.44-28.89-57-28.89-57a133.62,133.62,0,0,0-4.24,14.63,13,13,0,0,0,.33,7.27,39.3,39.3,0,0,0,5.24,10.13c-.31-.16-3.93-2.14-7.53-7.62-.35,2.25-.82,6.16-1.08,8.72a13.34,13.34,0,0,0,.57,5.5,49.7,49.7,0,0,0,7.92,15,26,26,0,0,1-9-7.81A63.28,63.28,0,0,0,122.67,91a11.55,11.55,0,0,0,2.3,3.58,41,41,0,0,0,7.41,6.24c.42.27.84.55,1.31.82-5.72-1.24-11.24-4.28-13.58-5.58-32-17.71-51.76-53.62-51.76-53.62a90.53,90.53,0,0,0-5.69,24.64h7.79V85.74H79.1v17.31H90.42v14h22.21v10.2c1.15.2,4.83,1.08,7.79,1.76a3.26,3.26,0,0,0-.18.38c-10,25.95-42.93,33.19-42.93,33.19,65.31,13.29,101.14-34.08,101.14-34.08-11.75,2.17-16.95-2.53-16.95-2.53s12.6,1.1,22.84-5C196.1,113.84,197.89,98.94,191.18,89Z"/><path class="cls-3" d="M174.84,106.87l-1-.83a15.88,15.88,0,0,1-1,3.13,17.12,17.12,0,0,1-1.87,2.62l6.85,5.69,1.92-8.59a23.85,23.85,0,0,1-3-.93A16.19,16.19,0,0,1,174.84,106.87Z"/><path class="cls-1" d="M163.64,107a3.5,3.5,0,1,1-.75-6.89,1.79,1.79,0,0,0-.58,1.81,1.75,1.75,0,0,0,2.14,1.24,1.7,1.7,0,0,0,1.26-1.37,3,3,0,0,1,.42.93A3.48,3.48,0,0,1,163.64,107Z"/><path class="cls-1" d="M182.62,101.17a3.51,3.51,0,0,1-4.28-2.49,3.47,3.47,0,0,1,2.49-4.28,3.19,3.19,0,0,1,1.06-.11,1.69,1.69,0,0,0-.62,1.78,1.76,1.76,0,0,0,2.14,1.26A1.79,1.79,0,0,0,184.72,96a3.82,3.82,0,0,1,.39.93A3.51,3.51,0,0,1,182.62,101.17Z"/></g></svg>