<svg width="16" height="16" viewBox="0 0 16 16" fill="none" xmlns="http://www.w3.org/2000/svg">
<path d="M8 0C6.41775 0 4.87103 0.469191 3.55544 1.34824C2.23985 2.22729 1.21447 3.47672 0.608967 4.93853C0.0034662 6.40034 -0.15496 8.00887 0.153721 9.56072C0.462403 11.1126 1.22433 12.538 2.34315 13.6569C3.46197 14.7757 4.88743 15.5376 6.43928 15.8463C7.99113 16.155 9.59966 15.9965 11.0615 15.391C12.5233 14.7855 13.7727 13.7602 14.6518 12.4446C15.5308 11.129 16 9.58225 16 8C16 5.87827 15.1572 3.84343 13.6569 2.34314C12.1566 0.842853 10.1217 0 8 0ZM8 14.8467C6.64586 14.8467 5.32213 14.4451 4.1962 13.6928C3.07028 12.9405 2.19272 11.8712 1.67451 10.6201C1.15631 9.36904 1.02072 7.9924 1.2849 6.66428C1.54908 5.33616 2.20116 4.1162 3.15868 3.15868C4.11621 2.20116 5.33616 1.54908 6.66429 1.2849C7.99241 1.02072 9.36904 1.1563 10.6201 1.67451C11.8712 2.19272 12.9405 3.07027 13.6928 4.1962C14.4451 5.32213 14.8467 6.64586 14.8467 8C14.8467 8.89911 14.6696 9.78943 14.3255 10.6201C13.9814 11.4508 13.4771 12.2055 12.8413 12.8413C12.2056 13.4771 11.4508 13.9814 10.6201 14.3255C9.78943 14.6696 8.89912 14.8467 8 14.8467V14.8467Z" fill="#F39325"/>
<path d="M12.1406 8.85374V8.41159C12.1406 8.20585 11.9738 8.03906 11.7681 8.03906H7.98446C7.77872 8.03906 7.61193 8.20585 7.61193 8.41159V8.85374C7.61193 9.05948 7.77872 9.22627 7.98446 9.22627H11.7681C11.9738 9.22627 12.1406 9.05948 12.1406 8.85374Z" fill="#F39325"/>
<path d="M8.36775 3.10449H8.04602C7.80703 3.10449 7.61328 3.29823 7.61328 3.53723V8.79405C7.61328 9.03304 7.80703 9.22679 8.04602 9.22679H8.36775C8.60674 9.22679 8.80049 9.03304 8.80049 8.79405V3.53723C8.80049 3.29823 8.60674 3.10449 8.36775 3.10449Z" fill="#F39325"/>
</svg>
